<svg width="58" height="57" viewBox="0 0 58 57" fill="none" xmlns="http://www.w3.org/2000/svg">
<path d="M28.9701 56.65C44.5003 56.65 57.0901 44.0603 57.0901 28.53C57.0901 12.9998 44.5003 0.410034 28.9701 0.410034C13.4398 0.410034 0.850098 12.9998 0.850098 28.53C0.850098 44.0603 13.4398 56.65 28.9701 56.65Z" fill="#D91F32"/>
<path d="M44.9999 44.52C36.4799 47.26 28.3899 42.03 27.7199 33.51C27.4399 29.93 27.6699 26.31 27.6699 22.58C30.6799 22.58 33.6499 22.58 36.8999 22.58C36.8999 23.07 36.8999 23.59 36.8999 24.11C36.9099 27 36.8299 29.89 36.9499 32.77C37.1699 38.19 39.7399 42.12 44.9999 44.52Z" fill="white"/>
<path d="M32.3901 44.58C24.1501 47.22 16.1401 42.17 15.3901 33.82C15.0601 30.14 15.3301 26.41 15.3301 22.58C18.2301 22.58 21.2001 22.58 24.4301 22.58C24.4301 23.18 24.4201 23.82 24.4301 24.45C24.4601 27.5 24.2701 30.58 24.5901 33.6C25.1401 38.86 26.7701 40.96 32.3901 44.58Z" fill="white"/>
<path d="M31.9299 10.38C35.1499 10.36 37.6399 12.74 37.6199 15.84C37.5999 18.85 35.1399 21.22 32.0199 21.24C28.9099 21.26 26.4499 18.89 26.4099 15.85C26.3699 12.85 28.8399 10.41 31.9299 10.38Z" fill="white"/>
<path d="M19.8901 21.44C17.5301 21.43 15.6701 19.55 15.7001 17.22C15.7301 14.91 17.6701 13.07 20.0201 13.12C22.2901 13.17 24.1101 15.01 24.1201 17.26C24.1401 19.59 22.2501 21.46 19.8901 21.44Z" fill="white"/>
</svg>
