<svg width="204" height="77" viewBox="0 0 204 77" fill="none" xmlns="http://www.w3.org/2000/svg">
<g clip-path="url(#clip0_1608_3356)">
<path d="M24.9791 16.7129V17.6419C25.0021 18.8789 24.5581 20.0779 23.7301 20.9959C22.9651 21.8949 21.8421 22.4069 20.6651 22.3959H10.0381C10.0381 19.2579 12.5841 16.7129 15.7231 16.7129H24.9791V16.7129Z" fill="#146EFA"/>
<path d="M24.9791 25.615V26.548C25.0021 27.782 24.5581 28.981 23.7301 29.9C22.9651 30.797 21.8421 31.31 20.6651 31.301H10.0381C10.0381 28.162 12.5841 25.616 15.7231 25.616L24.9791 25.615Z" fill="#14A050"/>
<path d="M29.778 48.25H4.149C1.857 48.25 0 46.393 0 44.102V4.125C0.012 1.843 1.867 0 4.149 0H29.589C29.589 3.5 26.754 6.338 23.254 6.342H6.647V41.92H23.465C26.95 41.94 29.769 44.764 29.778 48.25Z" fill="white"/>
<path d="M61.177 0.003C60.507 -0.002 59.844 0.127 59.223 0.38C58.596 0.648 58.024 1.034 57.543 1.515C56.548 2.477 56.001 3.81 56.03 5.195V20.711C54.947 19.443 53.694 18.333 52.306 17.41C50.133 16.033 47.602 15.335 45.031 15.405C42.245 15.365 39.5141 16.184 37.2121 17.752C34.9451 19.295 33.118 21.402 31.914 23.869C30.688 26.329 30.054 29.045 30.059 31.793C30.039 34.604 30.679 37.377 31.929 39.893C33.114 42.34 34.926 44.43 37.181 45.948C39.509 47.479 42.245 48.271 45.03 48.218C49.327 48.318 53.416 46.383 56.068 43.004C56.063 45.88 58.392 48.214 61.267 48.218C61.274 48.218 61.279 48.218 61.284 48.218H61.973V0H61.18V0.003H61.177ZM51.14 41.232C49.607 42.236 47.811 42.763 45.978 42.747C44.133 42.789 42.315 42.296 40.749 41.323C39.268 40.369 38.086 39.014 37.341 37.419C36.539 35.692 36.13 33.81 36.144 31.906C36.125 29.972 36.534 28.056 37.341 26.297C38.084 24.691 39.265 23.325 40.749 22.362C42.316 21.387 44.132 20.89 45.978 20.931C47.79 20.917 49.563 21.443 51.072 22.445C52.614 23.451 53.871 24.839 54.722 26.471C55.593 28.103 56.055 29.922 56.06 31.769C56.072 33.668 55.622 35.541 54.751 37.228C54.329 38.047 53.804 38.812 53.19 39.497C52.59 40.167 51.898 40.75 51.14 41.232Z" fill="white"/>
<path d="M95.0821 28.7049V48.2499H94.3231C92.9391 48.2789 91.6031 47.7309 90.6391 46.7359C89.6531 45.7599 89.1071 44.4269 89.1251 43.0409V29.7869C89.2461 27.5609 88.5451 25.3679 87.1561 23.6249C85.8591 22.1119 84.0141 21.4159 81.5151 21.4159C79.2741 21.3419 77.1121 22.2599 75.6111 23.9299C74.0411 25.6469 73.2051 27.9089 73.2801 30.2359V42.9839C73.2921 44.2379 72.8491 45.4569 72.0311 46.4129C71.0451 47.5909 69.5811 48.2679 68.0431 48.2509H67.2861V16.3449H69.3831C71.4951 16.3449 73.2091 18.0539 73.2131 20.1659C75.5551 17.2659 79.1261 15.6369 82.8501 15.7689C86.7091 15.7689 89.7531 16.9789 91.8891 19.3719C92.9571 20.5599 93.7741 21.9529 94.2881 23.4679C94.8381 25.1579 95.1051 26.9279 95.0821 28.7049Z" fill="white"/>
<path d="M130.989 31.6961C130.998 32.2191 130.976 32.7431 130.921 33.2611L130.822 33.9431H115.826C114.209 33.9431 113.042 33.4521 112.382 32.4891C111.811 31.6901 111.476 30.7471 111.412 29.7651V28.6151H124.841C124.552 26.5501 123.62 24.6271 122.168 23.1271C120.49 21.5101 118.215 20.6581 115.885 20.7801C114.364 20.7801 112.864 21.1841 111.55 21.9541C110.203 22.7371 109.053 23.8191 108.191 25.1191C107.311 26.4231 106.733 27.9071 106.5 29.4631V29.5911L106.455 29.6741C106.399 30.0081 106.382 30.3451 106.396 30.6821V30.7421C106.396 31.6661 106.396 32.4611 106.464 33.1131C106.573 36.5851 108.496 39.7441 111.528 41.4371C113.039 42.2871 114.748 42.7231 116.477 42.7021C118.206 42.7421 119.911 42.3211 121.418 41.4831C121.662 41.3371 121.886 41.1621 122.088 40.9621C124.268 38.9491 127.46 38.4731 130.132 39.7591L129.777 40.5141C128.606 42.9391 126.72 44.9451 124.376 46.2591C116.635 50.6041 106.839 47.8501 102.496 40.1121C102.489 40.1001 102.483 40.0901 102.475 40.0771C99.6978 34.9701 99.6678 28.8061 102.399 23.6761C103.712 21.2141 105.632 19.1291 107.977 17.6191C110.342 16.1101 113.097 15.3221 115.903 15.3481C118.786 15.2671 121.633 16.0061 124.115 17.4761C126.381 18.8891 128.176 20.9401 129.279 23.3711C130.447 25.9881 131.032 28.8301 130.989 31.6961Z" fill="white"/>
<path d="M166.838 31.6959C166.846 32.2189 166.827 32.7429 166.772 33.2609L166.671 33.9429H151.683C150.058 33.9429 148.899 33.4519 148.233 32.4889C147.664 31.6899 147.33 30.7459 147.269 29.7649V28.6149H160.698C160.411 26.5479 159.471 24.6269 158.019 23.1269C156.344 21.5099 154.071 20.6579 151.745 20.7799C150.221 20.7769 148.722 21.1819 147.407 21.9539C146.053 22.7359 144.904 23.8179 144.038 25.1189C143.163 26.4249 142.589 27.9079 142.35 29.4629V29.5909L142.308 29.6739C142.255 30.0079 142.237 30.3449 142.252 30.6819V30.7419C142.252 31.6659 142.252 32.4609 142.314 33.1129C142.473 38.5149 146.93 42.7929 152.335 42.7329C154.064 42.7699 155.766 42.3499 157.279 41.5129C157.517 41.3639 157.741 41.1869 157.943 40.9899C160.123 38.9799 163.307 38.5039 165.983 39.7879L165.634 40.5429C164.463 42.9699 162.574 44.9759 160.222 46.2889C152.475 50.6319 142.68 47.8739 138.335 40.1279C138.332 40.1209 138.329 40.1119 138.323 40.1059C135.543 34.9989 135.515 28.8349 138.255 23.7029C139.564 21.2389 141.484 19.1539 143.835 17.6479C146.198 16.1379 148.953 15.3489 151.76 15.3779C154.643 15.2999 157.49 16.0359 159.972 17.5039C162.235 18.9189 164.03 20.9709 165.126 23.4009C166.295 26.0059 166.881 28.8389 166.838 31.6959Z" fill="white"/>
<path d="M203.12 0.00306968C202.447 -0.00193032 201.781 0.12707 201.157 0.38007C200.54 0.65207 199.976 1.03907 199.5 1.51507C198.506 2.47707 197.956 3.80907 197.987 5.19507V20.7111C196.899 19.4401 195.635 18.3291 194.242 17.4101C192.07 16.0351 189.539 15.3371 186.971 15.4051C184.182 15.3701 181.449 16.1941 179.147 17.7661C176.881 19.3131 175.06 21.4201 173.848 23.8831C172.629 26.3411 171.999 29.0501 172.002 31.7931C171.986 34.5941 172.622 37.3591 173.863 39.8711C175.05 42.3151 176.862 44.4021 179.115 45.9261C181.445 47.4581 184.184 48.2501 186.973 48.1971C191.252 48.3101 195.337 46.3971 197.986 43.0331C197.986 45.9131 200.321 48.2501 203.201 48.2501H203.892V0.00306968H203.12ZM187.919 42.7241C186.075 42.7661 184.26 42.2711 182.688 41.3011C181.212 40.3441 180.035 38.9881 179.292 37.3941C178.484 35.6701 178.075 33.7881 178.094 31.8841C178.073 29.9481 178.479 28.0311 179.292 26.2751C180.026 24.6671 181.21 23.2991 182.694 22.3391C184.263 21.3631 186.076 20.8671 187.92 20.9081C189.733 20.8971 191.51 21.4241 193.023 22.4211C194.561 23.4311 195.814 24.8181 196.662 26.4491C197.542 28.0931 197.997 29.9281 197.989 31.7931C198 33.6911 197.551 35.5651 196.68 37.2501C196.257 38.0721 195.736 38.8361 195.117 39.5211C194.518 40.2021 193.827 40.7931 193.066 41.2861C191.53 42.2611 189.741 42.7621 187.919 42.7241Z" fill="white"/>
</g>
<path d="M33.12 73V61.48H40.48V63.056H34.792V66.288H39.52V67.864H34.792V71.424H40.48V73H33.12ZM48.7653 73V68.752C48.7653 68.416 48.7359 68.072 48.6773 67.72C48.6239 67.3627 48.5173 67.032 48.3573 66.728C48.2026 66.424 47.9813 66.1787 47.6933 65.992C47.4106 65.8053 47.0399 65.712 46.5813 65.712C46.2826 65.712 45.9999 65.7627 45.7333 65.864C45.4666 65.96 45.2319 66.1173 45.0293 66.336C44.8319 66.5547 44.6746 66.8427 44.5573 67.2C44.4453 67.5573 44.3893 67.992 44.3893 68.504L43.3493 68.112C43.3493 67.328 43.4959 66.6373 43.7893 66.04C44.0826 65.4373 44.5039 64.968 45.0533 64.632C45.6026 64.296 46.2666 64.128 47.0453 64.128C47.6426 64.128 48.1439 64.224 48.5493 64.416C48.9546 64.608 49.2826 64.8613 49.5333 65.176C49.7893 65.4853 49.9839 65.824 50.1173 66.192C50.2506 66.56 50.3413 66.92 50.3893 67.272C50.4373 67.624 50.4613 67.9333 50.4613 68.2V73H48.7653ZM42.6933 73V64.36H44.1893V66.856H44.3893V73H42.6933ZM56.1676 73.24C55.3623 73.24 54.6663 73.04 54.0796 72.64C53.4983 72.24 53.0476 71.696 52.7276 71.008C52.413 70.3147 52.2556 69.536 52.2556 68.672C52.2556 67.8027 52.4156 67.0267 52.7356 66.344C53.0556 65.656 53.509 65.1147 54.0956 64.72C54.6876 64.32 55.389 64.12 56.1996 64.12C57.0156 64.12 57.701 64.32 58.2556 64.72C58.8156 65.1147 59.237 65.656 59.5196 66.344C59.8076 67.032 59.9516 67.808 59.9516 68.672C59.9516 69.536 59.8076 70.312 59.5196 71C59.2316 71.688 58.8076 72.2347 58.2476 72.64C57.6876 73.04 56.9943 73.24 56.1676 73.24ZM56.3996 71.728C56.949 71.728 57.397 71.5973 57.7436 71.336C58.0903 71.0747 58.3436 70.7147 58.5036 70.256C58.6636 69.7973 58.7436 69.2693 58.7436 68.672C58.7436 68.0747 58.661 67.5467 58.4956 67.088C58.3356 66.6293 58.085 66.272 57.7436 66.016C57.4076 65.76 56.9783 65.632 56.4556 65.632C55.901 65.632 55.445 65.768 55.0876 66.04C54.7303 66.312 54.4636 66.6773 54.2876 67.136C54.117 67.5947 54.0316 68.1067 54.0316 68.672C54.0316 69.2427 54.117 69.76 54.2876 70.224C54.4636 70.6827 54.725 71.048 55.0716 71.32C55.4236 71.592 55.8663 71.728 56.3996 71.728ZM58.7436 73V66.784H58.5516V61.48H60.2316V73H58.7436ZM62.93 73V61.24H64.602V73H62.93ZM71.1364 73.24C70.2777 73.24 69.523 73.0533 68.8724 72.68C68.227 72.3013 67.723 71.776 67.3604 71.104C67.003 70.4267 66.8244 69.6427 66.8244 68.752C66.8244 67.808 67.0004 66.9893 67.3524 66.296C67.7097 65.6027 68.2057 65.0667 68.8404 64.688C69.475 64.3093 70.2137 64.12 71.0564 64.12C71.9364 64.12 72.6857 64.3253 73.3044 64.736C73.923 65.1413 74.3844 65.72 74.6884 66.472C74.9977 67.224 75.1204 68.1173 75.0564 69.152H73.3844V68.544C73.3737 67.5413 73.1817 66.8 72.8084 66.32C72.4404 65.84 71.8777 65.6 71.1204 65.6C70.283 65.6 69.6537 65.864 69.2324 66.392C68.811 66.92 68.6004 67.6827 68.6004 68.68C68.6004 69.6293 68.811 70.3653 69.2324 70.888C69.6537 71.4053 70.2617 71.664 71.0564 71.664C71.579 71.664 72.0297 71.5467 72.4084 71.312C72.7924 71.072 73.091 70.7307 73.3044 70.288L74.9444 70.808C74.6084 71.5813 74.099 72.1813 73.4164 72.608C72.7337 73.0293 71.9737 73.24 71.1364 73.24ZM68.0564 69.152V67.848H74.2244V69.152H68.0564ZM80.4553 73.232C79.4046 73.232 78.5486 73 77.8873 72.536C77.2259 72.072 76.8206 71.4187 76.6713 70.576L78.3832 70.312C78.4899 70.76 78.7353 71.1147 79.1193 71.376C79.5086 71.632 79.9913 71.76 80.5673 71.76C81.0899 71.76 81.4979 71.6533 81.7913 71.44C82.0899 71.2267 82.2393 70.9333 82.2393 70.56C82.2393 70.3413 82.1859 70.1653 82.0793 70.032C81.9779 69.8933 81.7619 69.7627 81.4313 69.64C81.1006 69.5173 80.5966 69.3653 79.9193 69.184C79.1779 68.992 78.5886 68.7867 78.1513 68.568C77.7193 68.344 77.4099 68.0853 77.2233 67.792C77.0419 67.4933 76.9513 67.1333 76.9513 66.712C76.9513 66.1893 77.0899 65.7333 77.3673 65.344C77.6446 64.9547 78.0339 64.6533 78.5353 64.44C79.0419 64.2267 79.6339 64.12 80.3113 64.12C80.9726 64.12 81.5619 64.224 82.0793 64.432C82.5966 64.64 83.0153 64.936 83.3353 65.32C83.6553 65.6987 83.8473 66.144 83.9113 66.656L82.1993 66.968C82.1406 66.552 81.9459 66.224 81.6153 65.984C81.2846 65.744 80.8553 65.6133 80.3273 65.592C79.8206 65.5707 79.4099 65.656 79.0953 65.848C78.7806 66.0347 78.6233 66.2933 78.6233 66.624C78.6233 66.816 78.6819 66.9787 78.7993 67.112C78.9219 67.2453 79.1566 67.3733 79.5033 67.496C79.8499 67.6187 80.3619 67.7653 81.0393 67.936C81.7646 68.1227 82.3406 68.3307 82.7673 68.56C83.1939 68.784 83.4979 69.0533 83.6793 69.368C83.8659 69.6773 83.9593 70.0533 83.9593 70.496C83.9593 71.3493 83.6473 72.0187 83.0233 72.504C82.4046 72.9893 81.5486 73.232 80.4553 73.232ZM89.3334 73.232C88.2827 73.232 87.4267 73 86.7654 72.536C86.104 72.072 85.6987 71.4187 85.5494 70.576L87.2614 70.312C87.368 70.76 87.6134 71.1147 87.9974 71.376C88.3867 71.632 88.8694 71.76 89.4454 71.76C89.968 71.76 90.376 71.6533 90.6694 71.44C90.968 71.2267 91.1174 70.9333 91.1174 70.56C91.1174 70.3413 91.064 70.1653 90.9574 70.032C90.856 69.8933 90.64 69.7627 90.3094 69.64C89.9787 69.5173 89.4747 69.3653 88.7974 69.184C88.056 68.992 87.4667 68.7867 87.0294 68.568C86.5974 68.344 86.288 68.0853 86.1014 67.792C85.92 67.4933 85.8294 67.1333 85.8294 66.712C85.8294 66.1893 85.968 65.7333 86.2454 65.344C86.5227 64.9547 86.912 64.6533 87.4134 64.44C87.92 64.2267 88.512 64.12 89.1894 64.12C89.8507 64.12 90.44 64.224 90.9574 64.432C91.4747 64.64 91.8934 64.936 92.2134 65.32C92.5334 65.6987 92.7254 66.144 92.7894 66.656L91.0774 66.968C91.0187 66.552 90.824 66.224 90.4934 65.984C90.1627 65.744 89.7334 65.6133 89.2054 65.592C88.6987 65.5707 88.288 65.656 87.9734 65.848C87.6587 66.0347 87.5014 66.2933 87.5014 66.624C87.5014 66.816 87.56 66.9787 87.6774 67.112C87.8 67.2453 88.0347 67.3733 88.3814 67.496C88.728 67.6187 89.24 67.7653 89.9174 67.936C90.6427 68.1227 91.2187 68.3307 91.6454 68.56C92.072 68.784 92.376 69.0533 92.5574 69.368C92.744 69.6773 92.8374 70.0533 92.8374 70.496C92.8374 71.3493 92.5254 72.0187 91.9014 72.504C91.2827 72.9893 90.4267 73.232 89.3334 73.232ZM102.195 73.24C101.549 73.24 100.947 73.1467 100.387 72.96C99.8266 72.768 99.3573 72.4693 98.9786 72.064C98.6853 71.7387 98.4666 71.3813 98.3226 70.992C98.184 70.5973 98.1066 70.1787 98.0906 69.736C98.0906 69.304 98.152 68.8853 98.2746 68.48C98.4026 68.0693 98.6026 67.704 98.8746 67.384C98.9973 67.2347 99.1333 67.1067 99.2826 67C99.432 66.888 99.5813 66.7893 99.7306 66.704C99.3893 66.3307 99.1306 65.976 98.9546 65.64C98.7786 65.2987 98.6906 64.896 98.6906 64.432C98.6906 63.7813 98.8613 63.1973 99.2026 62.68C99.544 62.1573 100.011 61.7813 100.603 61.552C100.875 61.44 101.152 61.3653 101.435 61.328C101.717 61.2853 101.992 61.264 102.259 61.264C102.739 61.264 103.203 61.3333 103.651 61.472C104.099 61.6107 104.483 61.8373 104.803 62.152C105.005 62.3387 105.176 62.5493 105.315 62.784C105.459 63.0187 105.568 63.2587 105.643 63.504L103.995 63.888C103.904 63.632 103.755 63.416 103.547 63.24C103.371 63.0853 103.165 62.9813 102.931 62.928C102.701 62.8693 102.472 62.84 102.243 62.84C101.864 62.84 101.523 62.912 101.219 63.056C100.941 63.1893 100.733 63.3733 100.595 63.608C100.456 63.8373 100.387 64.1147 100.387 64.44C100.387 64.728 100.437 64.96 100.539 65.136C100.64 65.312 100.776 65.496 100.947 65.688C101.048 65.8 101.168 65.92 101.307 66.048C101.451 66.176 101.597 66.3093 101.747 66.448L104.883 69.368C104.893 69.2507 104.901 69.1253 104.907 68.992C104.912 68.8587 104.915 68.7307 104.915 68.608L104.907 67.112H106.403V69.088C106.403 69.424 106.392 69.728 106.371 70C106.355 70.2667 106.323 70.4853 106.275 70.656L107.715 71.992L106.635 73.152L105.475 72.048C105.229 72.2933 104.955 72.5013 104.651 72.672C104.347 72.8373 104.04 72.96 103.731 73.04C103.469 73.12 103.211 73.1733 102.955 73.2C102.704 73.2267 102.451 73.24 102.195 73.24ZM102.243 71.64C102.456 71.64 102.653 71.6293 102.835 71.608C103.016 71.5813 103.189 71.5333 103.355 71.464C103.579 71.3733 103.76 71.28 103.899 71.184C104.043 71.088 104.163 70.9947 104.259 70.904L100.979 67.896C100.813 67.9547 100.659 68.032 100.515 68.128C100.376 68.2187 100.256 68.3253 100.155 68.448C100.032 68.6027 99.9386 68.784 99.8746 68.992C99.816 69.1947 99.7893 69.4133 99.7946 69.648C99.7946 69.904 99.8346 70.1387 99.9146 70.352C100 70.56 100.109 70.7467 100.243 70.912C100.456 71.168 100.752 71.3547 101.131 71.472C101.515 71.584 101.885 71.64 102.243 71.64ZM112.808 73V61.48H117.336C118.066 61.48 118.68 61.6293 119.176 61.928C119.672 62.2267 120.045 62.6133 120.296 63.088C120.546 63.5573 120.672 64.0533 120.672 64.576C120.672 65.2107 120.514 65.7547 120.2 66.208C119.89 66.6613 119.472 66.9707 118.944 67.136L118.928 66.744C119.664 66.9253 120.229 67.28 120.624 67.808C121.018 68.3307 121.216 68.9413 121.216 69.64C121.216 70.3173 121.08 70.9067 120.808 71.408C120.541 71.9093 120.149 72.3013 119.632 72.584C119.12 72.8613 118.498 73 117.768 73H112.808ZM114.504 71.408H117.512C117.89 71.408 118.229 71.336 118.528 71.192C118.832 71.048 119.069 70.8427 119.24 70.576C119.416 70.304 119.504 69.9813 119.504 69.608C119.504 69.2613 119.426 68.9493 119.272 68.672C119.122 68.3893 118.904 68.168 118.616 68.008C118.333 67.8427 118 67.76 117.616 67.76H114.504V71.408ZM114.504 66.184H117.312C117.621 66.184 117.898 66.1227 118.144 66C118.394 65.872 118.592 65.6907 118.736 65.456C118.885 65.216 118.96 64.928 118.96 64.592C118.96 64.144 118.81 63.776 118.512 63.488C118.213 63.2 117.813 63.056 117.312 63.056H114.504V66.184ZM126.94 73.24C126.081 73.24 125.326 73.0533 124.676 72.68C124.03 72.3013 123.526 71.776 123.164 71.104C122.806 70.4267 122.628 69.6427 122.628 68.752C122.628 67.808 122.804 66.9893 123.156 66.296C123.513 65.6027 124.009 65.0667 124.644 64.688C125.278 64.3093 126.017 64.12 126.86 64.12C127.74 64.12 128.489 64.3253 129.108 64.736C129.726 65.1413 130.188 65.72 130.492 66.472C130.801 67.224 130.924 68.1173 130.86 69.152H129.188V68.544C129.177 67.5413 128.985 66.8 128.612 66.32C128.244 65.84 127.681 65.6 126.924 65.6C126.086 65.6 125.457 65.864 125.036 66.392C124.614 66.92 124.404 67.6827 124.404 68.68C124.404 69.6293 124.614 70.3653 125.036 70.888C125.457 71.4053 126.065 71.664 126.86 71.664C127.382 71.664 127.833 71.5467 128.212 71.312C128.596 71.072 128.894 70.7307 129.108 70.288L130.748 70.808C130.412 71.5813 129.902 72.1813 129.22 72.608C128.537 73.0293 127.777 73.24 126.94 73.24ZM123.86 69.152V67.848H130.028V69.152H123.86ZM133.966 76.84L135.638 72.288L135.662 73.632L131.894 64.36H133.638L136.454 71.52H135.942L138.63 64.36H140.326L135.558 76.84H133.966ZM145.319 73.24C144.455 73.24 143.706 73.0453 143.071 72.656C142.436 72.2667 141.946 71.7307 141.599 71.048C141.258 70.36 141.087 69.568 141.087 68.672C141.087 67.7707 141.263 66.9787 141.615 66.296C141.967 65.608 142.46 65.0747 143.095 64.696C143.73 64.312 144.471 64.12 145.319 64.12C146.183 64.12 146.932 64.3147 147.567 64.704C148.202 65.0933 148.692 65.6293 149.039 66.312C149.386 66.9947 149.559 67.7813 149.559 68.672C149.559 69.5733 149.383 70.368 149.031 71.056C148.684 71.7387 148.194 72.2747 147.559 72.664C146.924 73.048 146.178 73.24 145.319 73.24ZM145.319 71.664C146.146 71.664 146.762 71.3867 147.167 70.832C147.578 70.272 147.783 69.552 147.783 68.672C147.783 67.7707 147.575 67.0507 147.159 66.512C146.748 65.968 146.135 65.696 145.319 65.696C144.759 65.696 144.298 65.824 143.935 66.08C143.572 66.3307 143.303 66.68 143.127 67.128C142.951 67.5707 142.863 68.0853 142.863 68.672C142.863 69.5787 143.071 70.304 143.487 70.848C143.903 71.392 144.514 71.664 145.319 71.664ZM157.681 73V68.752C157.681 68.416 157.652 68.072 157.593 67.72C157.54 67.3627 157.433 67.032 157.273 66.728C157.118 66.424 156.897 66.1787 156.609 65.992C156.326 65.8053 155.956 65.712 155.497 65.712C155.198 65.712 154.916 65.7627 154.649 65.864C154.382 65.96 154.148 66.1173 153.945 66.336C153.748 66.5547 153.59 66.8427 153.473 67.2C153.361 67.5573 153.305 67.992 153.305 68.504L152.265 68.112C152.265 67.328 152.412 66.6373 152.705 66.04C152.998 65.4373 153.42 64.968 153.969 64.632C154.518 64.296 155.182 64.128 155.961 64.128C156.558 64.128 157.06 64.224 157.465 64.416C157.87 64.608 158.198 64.8613 158.449 65.176C158.705 65.4853 158.9 65.824 159.033 66.192C159.166 66.56 159.257 66.92 159.305 67.272C159.353 67.624 159.377 67.9333 159.377 68.2V73H157.681ZM151.609 73V64.36H153.105V66.856H153.305V73H151.609ZM165.083 73.24C164.278 73.24 163.582 73.04 162.995 72.64C162.414 72.24 161.963 71.696 161.643 71.008C161.329 70.3147 161.171 69.536 161.171 68.672C161.171 67.8027 161.331 67.0267 161.651 66.344C161.971 65.656 162.425 65.1147 163.011 64.72C163.603 64.32 164.305 64.12 165.115 64.12C165.931 64.12 166.617 64.32 167.171 64.72C167.731 65.1147 168.153 65.656 168.435 66.344C168.723 67.032 168.867 67.808 168.867 68.672C168.867 69.536 168.723 70.312 168.435 71C168.147 71.688 167.723 72.2347 167.163 72.64C166.603 73.04 165.91 73.24 165.083 73.24ZM165.315 71.728C165.865 71.728 166.313 71.5973 166.659 71.336C167.006 71.0747 167.259 70.7147 167.419 70.256C167.579 69.7973 167.659 69.2693 167.659 68.672C167.659 68.0747 167.577 67.5467 167.411 67.088C167.251 66.6293 167.001 66.272 166.659 66.016C166.323 65.76 165.894 65.632 165.371 65.632C164.817 65.632 164.361 65.768 164.003 66.04C163.646 66.312 163.379 66.6773 163.203 67.136C163.033 67.5947 162.947 68.1067 162.947 68.672C162.947 69.2427 163.033 69.76 163.203 70.224C163.379 70.6827 163.641 71.048 163.987 71.32C164.339 71.592 164.782 71.728 165.315 71.728ZM167.659 73V66.784H167.467V61.48H169.147V73H167.659Z" fill="white"/>
<defs>
<clipPath id="clip0_1608_3356">
<rect width="203.419" height="48.232" fill="white"/>
</clipPath>
</defs>
</svg>
