<svg width="283" height="350" viewBox="0 0 283 350" fill="none" xmlns="http://www.w3.org/2000/svg">
<path d="M140.718 265.667C144.68 265.667 147.893 262.453 147.893 258.488C147.893 254.523 144.68 251.309 140.718 251.309C136.755 251.309 133.543 254.523 133.543 258.488C133.543 262.453 136.755 265.667 140.718 265.667Z" fill="#9857D3"/>
<path d="M253.203 337.782H28.2428C25.0745 337.782 22.5117 340.375 22.5117 343.561C22.5117 346.743 25.0745 349.336 28.2428 349.336H253.203C256.367 349.336 258.93 346.747 258.93 343.561C258.93 340.375 256.359 337.782 253.203 337.782Z" fill="#9857D3"/>
<path d="M40.4905 334.371H240.95C248.398 334.371 254.446 328.327 254.446 320.867L281.437 193.748C281.437 186.292 275.393 180.244 267.941 180.244H250.407H244.399C244.399 180.24 244.399 180.24 244.399 180.236H244.391C244.383 180.212 244.383 180.188 244.375 180.164C232.516 139.343 210.61 137.942 205.89 136.843C196.609 134.668 185.36 135.591 179.368 133.721C178.666 139.604 161.549 158.971 150.34 171.115L145.475 152.366C149.124 150.206 149.922 145.451 149.922 141.502H131.494C131.494 145.419 132.284 150.13 135.861 152.309L131.081 171.107C119.863 158.967 102.758 139.604 102.053 133.721C96.0527 135.591 84.8112 134.668 75.5267 136.843C70.8103 137.942 48.9007 139.347 37.0415 180.164C37.0375 180.188 37.0375 180.212 37.0294 180.236H30.9855H13.4995C6.0439 180.236 0 186.284 0 193.74L26.995 320.867C26.987 328.327 33.0309 334.371 40.4905 334.371ZM14.7147 182.424H30.6727H36.6204H36.6284H119.948H132.625H146.806H159.949H207.55H243.352H244.812L250.72 182.428H266.73C274.109 182.428 280.097 188.351 280.097 195.647L253.098 318.961C253.098 326.261 247.114 332.184 239.727 332.184H41.7097C34.3263 332.184 28.3426 326.261 28.3426 318.961L1.34354 195.643C1.34354 188.343 7.33129 182.424 14.7147 182.424Z" fill="#9857D3" stroke="#9857D3" stroke-width="3"/>
<path d="M91.9177 90.2672C96.2892 102.03 103.203 113.455 111.762 121.814C116.599 126.545 121.961 130.29 127.684 132.561C131.614 134.118 135.717 134.985 139.936 134.985C144.147 134.985 148.254 134.118 152.184 132.561C158.104 130.213 163.642 126.281 168.615 121.316C176.961 112.981 183.707 101.733 187.982 90.1709C191.279 89.1997 194.736 83.0276 196.136 75.1418C197.672 66.5779 196.22 59.1136 192.923 57.8655C193.04 55.7787 193.12 53.6678 193.12 51.5048C193.036 20.4796 174.86 2.44073 146.201 0.518465C121.199 -1.16302 102.373 8.77339 93.7946 25.2872C90.911 30.8414 89.2587 37.796 88.629 45.3447C87.6665 49.2775 87.105 53.3628 87.105 57.5846H87.1932C87.1932 57.6207 87.1852 57.6528 87.1852 57.6849C87.1251 57.6929 87.0649 57.6929 87.0047 57.705C83.3471 58.3431 81.6827 66.1445 83.291 75.1378C84.7588 83.4008 88.4846 89.7856 91.9177 90.2672ZM92.7438 67.1518C93.1008 66.0963 93.578 65.2737 94.1876 64.8362C94.4443 64.6516 94.7251 64.5232 95.0218 64.4751C95.6996 64.3547 96.4135 64.6195 97.1073 65.1773H97.1153C97.1153 65.1212 97.1194 65.065 97.1234 65.0088C97.36 62.6772 100.468 42.3108 120.064 44.1247C120.064 44.1247 137.245 50.4453 152.874 44.8591C154.55 44.823 156.187 44.8109 157.699 44.8671C164.176 45.1079 168.607 48.4628 173.248 50.6299C173.075 48.4909 171.435 46.3038 171.515 44.8671C172.261 45.0798 172.935 45.3928 173.585 45.746C176.921 49.3096 180.17 55.2851 182.733 65.0569C182.741 65.0971 182.741 65.1372 182.741 65.1813C182.749 65.1773 182.757 65.1693 182.765 65.1653C182.765 65.1653 182.773 65.1693 182.773 65.1773L182.805 65.1292C183.483 64.5995 184.172 64.3547 184.834 64.471C185.007 64.4991 185.163 64.5553 185.319 64.6275C187.465 65.6308 188.379 70.6231 187.369 76.3177C186.591 80.6879 184.882 84.2837 183.065 85.8247C182.344 86.4387 181.602 86.7236 180.888 86.5992C180.491 86.531 180.134 86.3343 179.805 86.0293C175.838 98.3696 168.287 110.662 158.758 118.126C153.071 122.577 146.686 125.313 139.932 125.313C133.323 125.313 127.066 122.697 121.471 118.411C111.77 110.975 104.074 98.5301 100.059 86.0334C99.7302 86.3384 99.3733 86.535 98.9722 86.6032C98.1461 86.7437 97.2798 86.3343 96.4496 85.5036C94.7692 83.8181 93.2291 80.411 92.5032 76.3217C92.4511 76.0528 92.427 75.796 92.3909 75.5311C92.423 72.6658 92.5513 69.8887 92.7438 67.1518Z" fill="#9857D3"/>
</svg>
