<svg width="1724" height="395" viewBox="0 0 1724 395" fill="none" xmlns="http://www.w3.org/2000/svg">
<g clip-path="url(#clip0_6327_10750)">
<path d="M140.718 288.667C144.68 288.667 147.893 285.453 147.893 281.488C147.893 277.523 144.68 274.309 140.718 274.309C136.755 274.309 133.543 277.523 133.543 281.488C133.543 285.453 136.755 288.667 140.718 288.667Z" fill="white"/>
<path d="M253.203 360.782H28.2428C25.0745 360.782 22.5117 363.375 22.5117 366.561C22.5117 369.743 25.0745 372.336 28.2428 372.336H253.203C256.367 372.336 258.93 369.747 258.93 366.561C258.93 363.375 256.359 360.782 253.203 360.782Z" fill="white"/>
<path d="M40.4905 357.371H240.95C248.398 357.371 254.446 351.327 254.446 343.867L281.437 216.748C281.437 209.292 275.393 203.244 267.941 203.244H250.407H244.399C244.399 203.24 244.399 203.24 244.399 203.236H244.391C244.383 203.212 244.383 203.188 244.375 203.164C232.516 162.343 210.61 160.942 205.89 159.843C196.609 157.668 185.36 158.591 179.368 156.721C178.666 162.604 161.549 181.971 150.34 194.115L145.475 175.366C149.124 173.206 149.922 168.451 149.922 164.502H131.494C131.494 168.419 132.284 173.13 135.861 175.309L131.081 194.107C119.863 181.967 102.758 162.604 102.053 156.721C96.0527 158.591 84.8112 157.668 75.5267 159.843C70.8103 160.942 48.9007 162.347 37.0415 203.164C37.0375 203.188 37.0375 203.212 37.0294 203.236H30.9855H13.4995C6.0439 203.236 0 209.284 0 216.74L26.995 343.867C26.987 351.327 33.0309 357.371 40.4905 357.371ZM14.7147 205.424H30.6727H36.6204H36.6284H119.948H132.625H146.806H159.949H207.55H243.352H244.812L250.72 205.428H266.73C274.109 205.428 280.097 211.351 280.097 218.647L253.098 341.961C253.098 349.261 247.114 355.184 239.727 355.184H41.7097C34.3263 355.184 28.3426 349.261 28.3426 341.961L1.34354 218.643C1.34354 211.343 7.33129 205.424 14.7147 205.424Z" fill="white" stroke="white" stroke-width="3"/>
<path d="M91.9177 113.267C96.2892 125.03 103.203 136.455 111.762 144.814C116.599 149.545 121.961 153.29 127.684 155.561C131.614 157.118 135.717 157.985 139.936 157.985C144.147 157.985 148.254 157.118 152.184 155.561C158.104 153.213 163.642 149.281 168.615 144.316C176.961 135.981 183.707 124.733 187.982 113.171C191.279 112.2 194.736 106.028 196.136 98.1418C197.672 89.5779 196.22 82.1136 192.923 80.8655C193.04 78.7787 193.12 76.6678 193.12 74.5048C193.036 43.4796 174.86 25.4407 146.201 23.5185C121.199 21.837 102.373 31.7734 93.7946 48.2872C90.911 53.8414 89.2587 60.796 88.629 68.3447C87.6665 72.2775 87.105 76.3628 87.105 80.5846H87.1932C87.1932 80.6207 87.1852 80.6528 87.1852 80.6849C87.1251 80.6929 87.0649 80.6929 87.0047 80.705C83.3471 81.3431 81.6827 89.1445 83.291 98.1378C84.7588 106.401 88.4846 112.786 91.9177 113.267ZM92.7438 90.1518C93.1008 89.0963 93.578 88.2737 94.1876 87.8362C94.4443 87.6516 94.7251 87.5232 95.0218 87.4751C95.6996 87.3547 96.4135 87.6195 97.1073 88.1773H97.1153C97.1153 88.1212 97.1194 88.065 97.1234 88.0088C97.36 85.6772 100.468 65.3108 120.064 67.1247C120.064 67.1247 137.245 73.4453 152.874 67.8591C154.55 67.823 156.187 67.8109 157.699 67.8671C164.176 68.1079 168.607 71.4628 173.248 73.6299C173.075 71.4909 171.435 69.3038 171.515 67.8671C172.261 68.0798 172.935 68.3928 173.585 68.746C176.921 72.3096 180.17 78.2851 182.733 88.0569C182.741 88.0971 182.741 88.1372 182.741 88.1814C182.749 88.1773 182.757 88.1693 182.765 88.1653C182.765 88.1653 182.773 88.1693 182.773 88.1773L182.805 88.1292C183.483 87.5995 184.172 87.3547 184.834 87.471C185.007 87.4991 185.163 87.5553 185.319 87.6275C187.465 88.6308 188.379 93.6231 187.369 99.3177C186.591 103.688 184.882 107.284 183.065 108.825C182.344 109.439 181.602 109.724 180.888 109.599C180.491 109.531 180.134 109.334 179.805 109.029C175.838 121.37 168.287 133.662 158.758 141.126C153.071 145.577 146.686 148.313 139.932 148.313C133.323 148.313 127.066 145.697 121.471 141.411C111.77 133.975 104.074 121.53 100.059 109.033C99.7302 109.338 99.3733 109.535 98.9722 109.603C98.1461 109.744 97.2798 109.334 96.4496 108.504C94.7692 106.818 93.2291 103.411 92.5032 99.3217C92.4511 99.0528 92.427 98.796 92.3909 98.5311C92.423 95.6658 92.5513 92.8887 92.7438 90.1518Z" fill="white"/>
<path d="M140.718 288.333C144.68 288.333 147.893 285.119 147.893 281.154C147.893 277.189 144.68 273.975 140.718 273.975C136.755 273.975 133.543 277.189 133.543 281.154C133.543 285.119 136.755 288.333 140.718 288.333Z" fill="white"/>
<path d="M253.203 360.448H28.2428C25.0745 360.448 22.5117 363.041 22.5117 366.227C22.5117 369.409 25.0745 372.002 28.2428 372.002H253.203C256.367 372.002 258.93 369.413 258.93 366.227C258.93 363.041 256.359 360.448 253.203 360.448Z" fill="white"/>
<path d="M40.4905 357.037H240.95C248.398 357.037 254.446 350.993 254.446 343.533L281.437 216.414C281.437 208.958 275.393 202.91 267.941 202.91H250.407H244.399C244.399 202.906 244.399 202.906 244.399 202.902H244.391C244.383 202.878 244.383 202.854 244.375 202.83C232.516 162.009 210.61 160.608 205.89 159.509C196.609 157.334 185.36 158.257 179.368 156.387C178.666 162.27 161.549 181.637 150.34 193.781L145.475 175.032C149.124 172.872 149.922 168.117 149.922 164.168H131.494C131.494 168.085 132.284 172.796 135.861 174.975L131.081 193.773C119.863 181.633 102.758 162.27 102.053 156.387C96.0527 158.257 84.8112 157.334 75.5267 159.509C70.8103 160.608 48.9007 162.013 37.0415 202.83C37.0375 202.854 37.0375 202.878 37.0294 202.902H30.9855H13.4995C6.0439 202.902 0 208.95 0 216.406L26.995 343.533C26.987 350.993 33.0309 357.037 40.4905 357.037ZM14.7147 205.09H30.6727H36.6204H36.6284H119.948H132.625H146.806H159.949H207.55H243.352H244.812L250.72 205.094H266.73C274.109 205.094 280.097 211.017 280.097 218.313L253.098 341.627C253.098 348.927 247.114 354.85 239.727 354.85H41.7097C34.3263 354.85 28.3426 348.927 28.3426 341.627L1.34354 218.309C1.34354 211.009 7.33129 205.09 14.7147 205.09Z" fill="white" stroke="white" stroke-width="3"/>
<path d="M91.9177 112.933C96.2892 124.696 103.203 136.121 111.762 144.48C116.599 149.212 121.961 152.956 127.684 155.227C131.614 156.784 135.717 157.651 139.936 157.651C144.147 157.651 148.254 156.784 152.184 155.227C158.104 152.879 163.642 148.947 168.615 143.982C176.961 135.647 183.707 124.399 187.982 112.837C191.279 111.866 194.736 105.694 196.136 97.8079C197.672 89.2439 196.22 81.7796 192.923 80.5315C193.04 78.4447 193.12 76.3338 193.12 74.1708C193.036 43.1456 174.86 25.1067 146.201 23.1845C121.199 21.503 102.373 31.4394 93.7946 47.9533C90.911 53.5074 89.2587 60.4621 88.629 68.0107C87.6665 71.9435 87.105 76.0288 87.105 80.2506H87.1932C87.1932 80.2867 87.1852 80.3188 87.1852 80.3509C87.1251 80.3589 87.0649 80.3589 87.0047 80.371C83.3471 81.0091 81.6827 88.8105 83.291 97.8038C84.7588 106.067 88.4846 112.452 91.9177 112.933ZM92.7438 89.8178C93.1008 88.7624 93.578 87.9397 94.1876 87.5022C94.4443 87.3176 94.7251 87.1892 95.0218 87.1411C95.6996 87.0207 96.4135 87.2855 97.1073 87.8434H97.1153C97.1153 87.7872 97.1194 87.731 97.1234 87.6748C97.36 85.3432 100.468 64.9768 120.064 66.7907C120.064 66.7907 137.245 73.1113 152.874 67.5251C154.55 67.489 156.187 67.4769 157.699 67.5331C164.176 67.7739 168.607 71.1288 173.248 73.2959C173.075 71.1569 171.435 68.9698 171.515 67.5331C172.261 67.7458 172.935 68.0588 173.585 68.412C176.921 71.9756 180.17 77.9511 182.733 87.723C182.741 87.7631 182.741 87.8032 182.741 87.8474C182.749 87.8434 182.757 87.8353 182.765 87.8313C182.765 87.8313 182.773 87.8353 182.773 87.8434L182.805 87.7952C183.483 87.2655 184.172 87.0207 184.834 87.1371C185.007 87.1651 185.163 87.2213 185.319 87.2936C187.465 88.2968 188.379 93.2891 187.369 98.9837C186.591 103.354 184.882 106.95 183.065 108.491C182.344 109.105 181.602 109.39 180.888 109.265C180.491 109.197 180.134 109 179.805 108.695C175.838 121.036 168.287 133.328 158.758 140.792C153.071 145.243 146.686 147.979 139.932 147.979C133.323 147.979 127.066 145.363 121.471 141.077C111.77 133.641 104.074 121.196 100.059 108.699C99.7302 109.004 99.3733 109.201 98.9722 109.269C98.1461 109.41 97.2798 109 96.4496 108.17C94.7692 106.484 93.2291 103.077 92.5032 98.9877C92.4511 98.7188 92.427 98.462 92.3909 98.1971C92.423 95.3318 92.5513 92.5547 92.7438 89.8178Z" fill="white"/>
<mask id="path-9-outside-1_6327_10750" maskUnits="userSpaceOnUse" x="372.104" y="-1" width="1353" height="397" fill="black">
<rect fill="white" x="372.104" y="-1" width="1353" height="397"/>
<path d="M375.158 248.957C370.134 242.924 374.823 236.221 383.867 231.864C392.576 227.507 394.251 220.803 391.571 214.77C382.862 194.995 380.182 189.632 382.192 181.588C384.202 174.549 389.896 169.857 396.595 169.522C402.96 169.187 407.314 172.203 409.994 177.566C412.338 182.258 411.669 189.967 405.639 193.989C404.299 194.66 401.955 196 400.615 194.66C398.605 193.319 399.61 191.978 401.285 190.303C409.994 183.599 400.615 171.868 393.246 177.566C385.207 183.599 388.556 193.319 399.61 217.116C400.615 219.127 402.96 222.144 406.979 220.133C414.683 216.781 424.397 212.424 433.776 208.067C450.859 200.022 466.267 190.303 482.01 179.912C484.02 178.572 486.699 174.885 489.044 178.572C491.054 181.588 487.704 182.929 485.36 184.605C463.252 200.358 440.14 213.429 414.683 223.149C406.644 226.166 400.615 231.529 398.605 239.238C396.26 247.617 381.522 256.666 375.158 248.957ZM385.877 245.271C393.581 242.254 396.595 231.193 389.896 234.545C375.493 241.584 379.512 247.952 385.877 245.271ZM629.392 177.901C632.407 179.912 630.397 181.923 628.722 183.264C606.28 203.039 588.527 224.155 561.73 239.238C551.347 244.935 538.618 252.98 527.899 243.595C516.511 233.204 524.215 219.798 528.904 208.067C531.919 200.358 536.608 192.984 539.288 185.275C541.298 179.242 539.958 175.555 531.919 178.572C513.161 185.945 498.758 199.017 485.025 212.759C481.675 216.446 478.66 220.468 475.311 224.49C473.301 226.836 471.291 231.193 467.942 228.847C465.262 226.836 466.602 222.814 467.942 219.462C475.646 201.028 482.68 182.258 490.719 163.824C505.457 130.307 520.865 96.7897 542.973 67.2947C551.347 56.234 560.725 45.8437 573.789 40.1458C590.202 33.1072 602.93 41.1513 602.595 59.2506C601.926 78.0201 591.542 93.1029 580.153 106.51C561.395 128.966 539.623 148.406 513.496 161.813C496.748 170.192 488.709 182.929 485.025 199.687C484.69 201.028 484.69 202.369 486.699 201.363C497.418 193.319 506.797 183.934 518.856 177.566C524.215 174.549 529.239 171.198 535.604 170.863C546.322 170.192 550.342 174.549 546.992 184.94C544.312 192.649 539.958 200.022 536.608 207.396C534.264 212.759 531.919 217.787 530.244 222.814C528.569 228.177 527.23 234.21 531.584 238.567C536.273 243.26 541.968 241.584 547.327 239.573C568.43 231.864 591.877 210.413 624.033 180.247C625.373 178.907 627.382 176.561 629.392 177.901ZM515.171 128.631C510.482 139.021 503.112 148.071 503.112 160.137C538.953 143.379 567.425 117.906 588.192 84.0532C591.877 78.0202 594.221 70.9816 596.231 64.2781C597.906 58.245 597.906 51.8768 592.547 47.1844C586.517 42.492 579.818 43.8327 573.789 47.1844C565.75 52.212 558.716 58.5802 552.686 65.954C537.613 85.3939 525.22 106.175 515.171 128.631ZM757.347 178.236C760.696 180.918 757.012 183.264 755.337 184.605C737.249 202.369 721.506 218.457 700.069 231.864C696.049 234.21 692.365 236.556 688.345 238.232C680.641 241.249 672.937 241.584 666.238 236.221C659.204 230.523 659.539 222.479 661.213 214.77C662.553 209.072 664.563 203.374 666.238 198.011C651.499 205.05 642.791 220.133 629.057 228.847C624.368 231.864 620.013 235.215 614.989 237.562C608.96 240.243 603.265 241.584 597.906 236.891C592.882 232.199 592.547 225.831 593.887 219.798C598.911 196 627.382 172.538 652.169 171.868C656.859 171.868 661.883 173.544 666.238 176.225C668.247 177.566 669.922 180.918 672.937 179.242C676.621 177.231 679.636 170.863 683.656 177.566C686.67 181.923 682.316 185.61 680.641 189.632C676.621 198.011 671.262 206.056 669.252 215.44C667.913 221.473 665.903 227.171 671.932 231.864C677.961 236.221 683.321 234.21 689.015 231.193C701.074 225.495 711.792 217.451 721.506 208.067C731.555 198.347 740.599 191.308 750.648 181.588C752.322 179.577 754.667 176.225 757.347 178.236ZM659.204 193.319C661.883 190.638 664.898 187.621 663.223 183.264C660.878 177.566 655.519 180.247 652.169 179.577C631.737 179.577 609.965 196.336 602.26 217.451C600.586 222.814 597.571 228.177 603.265 232.534C608.29 236.891 612.979 232.869 616.664 230.523C633.077 220.803 645.805 206.726 659.204 193.319ZM815.965 243.93C799.217 244.265 794.527 240.243 793.522 222.814C793.187 219.462 795.197 214.1 791.513 212.424C787.828 210.748 784.478 214.435 781.464 216.781C769.74 225.495 758.352 234.545 744.283 238.567C732.225 242.254 721.171 232.869 723.516 220.803C728.54 196.336 756.677 168.181 782.469 170.863C782.134 170.863 784.143 171.198 785.483 170.527C792.852 168.516 799.887 178.907 805.581 172.203C810.27 166.841 811.61 159.132 814.625 152.428C830.033 120.587 843.766 87.7401 867.213 59.9209C870.563 55.8988 874.248 51.5416 878.602 48.1899C889.991 40.1458 900.709 44.8382 902.719 58.9154C904.729 72.6574 900.039 85.0587 893.675 97.1249C874.248 132.988 845.441 160.807 815.965 188.291C807.256 196.336 802.231 204.715 800.556 216.446C797.542 234.21 807.256 242.924 824.674 236.891C837.402 232.534 848.456 224.49 857.835 215.105C870.563 202.704 878.937 193.319 891.665 180.583C893.005 179.242 896.355 176.896 896.69 177.231C900.374 180.247 896.355 182.258 895.015 183.934C879.272 203.374 865.539 217.787 845.106 232.534C836.732 238.902 827.353 243.595 815.965 243.93ZM833.383 163.824C858.839 138.351 883.961 112.208 895.015 76.3443C897.695 68.3002 900.374 58.9154 892 53.5526C882.622 47.5196 878.602 58.245 873.913 63.2726C852.475 87.4049 840.082 116.565 826.348 145.054C810.27 179.242 803.236 195.665 833.383 163.824ZM733.23 229.518C738.924 235.886 746.963 231.864 752.992 228.512C767.061 220.803 780.124 211.083 792.182 200.693C797.877 196 802.566 190.638 799.552 183.599C796.537 176.896 788.833 176.561 782.134 176.561C765.051 176.561 745.958 189.967 735.239 209.407C731.89 215.776 727.87 223.484 733.23 229.518ZM1025.65 178.236C1029 180.918 1025.31 183.264 1023.64 184.605C1005.55 202.369 989.809 218.457 968.371 231.864C964.352 234.21 960.667 236.556 956.648 238.232C948.944 241.249 941.24 241.584 934.54 236.221C927.506 230.523 927.841 222.479 929.516 214.77C930.856 209.072 932.865 203.374 934.54 198.011C919.802 205.05 911.093 220.133 897.36 228.847C892.67 231.864 888.316 235.215 883.291 237.562C877.262 240.243 871.568 241.584 866.209 236.891C861.184 232.199 860.849 225.831 862.189 219.798C867.213 196 895.685 172.538 920.472 171.868C925.161 171.868 930.186 173.544 934.54 176.225C936.55 177.566 938.225 180.918 941.239 179.242C944.924 177.231 947.939 170.863 951.958 177.566C954.973 181.923 950.618 185.61 948.943 189.632C944.924 198.011 939.565 206.056 937.555 215.44C936.215 221.473 934.205 227.171 940.235 231.864C946.264 236.221 951.623 234.21 957.318 231.193C969.376 225.495 980.095 217.451 989.809 208.067C999.857 198.347 1008.9 191.308 1018.95 181.588C1020.62 179.577 1022.97 176.225 1025.65 178.236ZM927.506 193.319C930.186 190.638 933.2 187.621 931.526 183.264C929.181 177.566 923.822 180.247 920.472 179.577C900.039 179.577 878.267 196.336 870.563 217.451C868.888 222.814 865.874 228.177 871.568 232.534C876.592 236.891 881.282 232.869 884.966 230.523C901.379 220.803 914.108 206.726 927.506 193.319ZM1036.37 173.879C1025.98 179.577 1024.64 189.967 1025.65 200.693C1033.35 193.654 1039.72 184.94 1049.1 179.912C1064.17 171.533 1076.56 177.901 1078.24 195.33C1079.91 210.413 1079.91 210.748 1093.98 205.385C1112.74 198.347 1127.14 190.638 1145.23 181.923C1148.91 179.912 1154.27 174.549 1156.62 178.907C1159.3 183.264 1151.93 184.605 1148.58 186.28C1128.15 197.341 1110.39 206.056 1088.29 213.765C1080.58 216.446 1075.56 220.468 1071.2 227.842C1064.5 239.908 1054.46 248.622 1039.38 248.622C1034.02 248.622 1027.66 249.293 1025.98 241.919C1024.64 235.886 1029 232.534 1033.02 229.853C1041.39 224.155 1051.11 221.138 1060.82 218.457C1070.2 215.44 1073.55 209.072 1072.54 199.352C1071.2 182.929 1063.83 179.242 1049.77 187.286C1036.37 194.995 1030 207.731 1022.63 220.133C1020.96 223.484 1020.62 229.182 1014.93 226.836C1011.25 225.16 1012.92 221.138 1013.59 218.122C1023.64 161.143 1047.09 110.197 1081.59 63.943C1090.3 52.5471 1099.34 41.4865 1110.39 31.4314C1118.77 23.7224 1128.48 18.6948 1139.2 15.6783C1159.3 9.98039 1174.71 25.0631 1170.02 45.5085C1163.32 75.674 1143.55 96.4546 1121.11 115.224C1094.65 137.345 1066.51 157.121 1036.37 173.879ZM1038.38 157.791C1037.37 160.137 1036.03 164.159 1037.04 165.5C1039.05 167.511 1042.06 164.83 1044.07 163.489C1080.92 141.368 1116.09 117.235 1144.56 84.3884C1155.61 71.6519 1163.65 56.9044 1165.33 35.4534C1165.33 27.0741 1155.61 19.3652 1143.22 22.0466C1129.82 25.0631 1118.43 31.7665 1109.05 41.8217C1077.57 75.674 1054.46 114.889 1038.38 157.791ZM1062.83 228.847C1063.83 227.842 1064.17 225.495 1061.82 225.16C1053.79 224.49 1047.42 229.518 1040.39 231.864C1039.05 232.534 1037.71 233.875 1036.37 234.88C1034.69 235.886 1032.01 237.226 1032.68 239.908C1033.69 243.26 1037.04 241.919 1040.05 242.589C1049.77 242.254 1057.14 236.891 1062.83 228.847ZM1230.98 248.957C1225.96 242.924 1230.64 236.221 1239.69 231.864C1248.4 227.507 1250.07 220.803 1247.39 214.77C1238.68 194.995 1236 189.632 1238.01 181.588C1240.02 174.549 1245.72 169.857 1252.42 169.522C1258.78 169.187 1263.14 172.203 1265.82 177.566C1268.16 182.258 1267.49 189.967 1261.46 193.989C1260.12 194.66 1257.78 196 1256.44 194.66C1254.43 193.319 1255.43 191.978 1257.11 190.303C1265.82 183.599 1256.44 171.868 1249.07 177.566C1241.03 183.599 1244.38 193.319 1255.43 217.116C1256.44 219.127 1258.78 222.144 1262.8 220.133C1270.5 216.781 1280.22 212.424 1289.6 208.067C1306.68 200.022 1322.09 190.303 1337.83 179.912C1339.84 178.572 1342.52 174.885 1344.87 178.572C1346.88 181.588 1343.53 182.929 1341.18 184.605C1319.07 200.358 1295.96 213.429 1270.5 223.149C1262.47 226.166 1256.44 231.529 1254.43 239.238C1252.08 247.617 1237.34 256.666 1230.98 248.957ZM1241.7 245.271C1249.4 242.254 1252.42 231.193 1245.72 234.545C1231.31 241.584 1235.33 247.952 1241.7 245.271ZM1471.15 178.236C1474.5 180.918 1470.81 183.264 1469.14 184.605C1451.05 202.369 1435.3 218.457 1413.87 231.864C1409.85 234.21 1406.16 236.556 1402.14 238.232C1394.44 241.249 1386.74 241.584 1380.04 236.221C1373 230.523 1373.34 222.479 1375.01 214.77C1376.35 209.072 1378.36 203.374 1380.04 198.011C1365.3 205.05 1356.59 220.133 1342.86 228.847C1338.17 231.864 1333.81 235.215 1328.79 237.562C1322.76 240.243 1317.06 241.584 1311.7 236.891C1306.68 232.199 1306.35 225.831 1307.69 219.798C1312.71 196 1341.18 172.538 1365.97 171.868C1370.66 171.868 1375.68 173.544 1380.04 176.225C1382.05 177.566 1383.72 180.918 1386.74 179.242C1390.42 177.231 1393.43 170.863 1397.45 177.566C1400.47 181.923 1396.11 185.61 1394.44 189.632C1390.42 198.011 1385.06 206.056 1383.05 215.44C1381.71 221.473 1379.7 227.171 1385.73 231.864C1391.76 236.221 1397.12 234.21 1402.81 231.193C1414.87 225.495 1425.59 217.451 1435.3 208.067C1445.35 198.347 1454.4 191.308 1464.45 181.588C1466.12 179.577 1468.47 176.225 1471.15 178.236ZM1373 193.319C1375.68 190.638 1378.7 187.621 1377.02 183.264C1374.68 177.566 1369.32 180.247 1365.97 179.577C1345.54 179.577 1323.76 196.336 1316.06 217.451C1314.38 222.814 1311.37 228.177 1317.06 232.534C1322.09 236.891 1326.78 232.869 1330.46 230.523C1346.88 220.803 1359.6 206.726 1373 193.319ZM1488.56 146.395C1484.88 146.73 1482.53 144.384 1481.86 140.697C1480.52 132.318 1488.23 130.977 1492.92 128.631C1496.27 126.955 1498.61 130.307 1499.62 133.994C1497.61 139.356 1495.6 145.39 1488.56 146.395ZM1472.82 238.902C1460.43 242.589 1450.38 234.21 1451.38 220.803C1455.07 206.726 1461.77 192.649 1468.47 178.572C1469.81 175.89 1472.15 173.544 1474.83 175.555C1478.18 177.901 1475.17 180.583 1474.16 182.929C1469.81 192.984 1464.78 203.039 1461.1 213.429C1459.09 219.462 1456.41 226.501 1463.11 232.199C1467.46 235.551 1474.83 232.199 1480.19 230.188C1501.29 221.473 1518.04 197.006 1542.49 178.907C1544.17 177.901 1545.51 175.22 1547.52 177.901C1549.19 179.912 1547.18 181.588 1545.51 182.594C1513.02 206.056 1506.99 229.182 1472.82 238.902ZM1566.27 163.489C1546.18 178.236 1542.49 202.369 1533.78 223.82C1530.77 230.858 1536.8 227.842 1539.81 226.166C1579.34 204.715 1617.52 185.61 1644.99 177.566C1646.66 177.231 1649.68 176.896 1650.01 179.912C1650.35 181.588 1648.67 182.258 1647 182.929C1642.31 184.605 1637.29 185.61 1632.6 186.951C1617.52 190.638 1560.24 221.809 1554.55 224.825C1545.51 229.853 1535.46 232.534 1531.1 238.567C1524.4 247.282 1536.8 256.666 1538.81 266.386C1541.82 279.458 1538.81 291.189 1535.46 302.585C1526.75 333.421 1511.68 361.91 1491.58 387.718C1491.24 388.389 1490.91 388.724 1490.57 389.059C1487.22 393.081 1483.87 397.103 1477.84 393.751C1472.82 391.07 1475.16 386.378 1476.17 382.02C1483.2 342.135 1495.26 303.59 1509.33 265.716C1510.34 262.364 1511.34 259.348 1512.68 256.331C1516.7 248.287 1515.03 244.935 1505.65 247.617C1502.3 246.611 1496.6 249.963 1495.6 244.935C1494.26 239.238 1500.96 236.556 1504.31 236.891C1521.72 238.232 1523.73 225.495 1529.09 213.765C1555.22 154.104 1580.01 94.1084 1618.19 40.8162C1627.91 27.7445 1637.96 15.3431 1651.35 5.95834C1659.06 0.930768 1668.1 -3.09128 1676.14 3.27697C1683.84 9.64522 1685.85 18.6948 1682.84 29.0852C1675.47 53.8878 1660.73 73.6629 1643.65 92.4325C1619.87 118.241 1594.41 142.373 1566.27 163.489ZM1647.67 18.0245C1629.92 32.772 1618.53 52.8823 1606.47 72.3222C1589.72 98.8008 1573.98 125.95 1564.93 156.115C1591.73 138.686 1615.18 117.235 1636.28 93.1029C1651.35 75.674 1665.76 57.9099 1674.13 36.4589C1677.48 27.4093 1682.17 15.6783 1671.79 8.97488C1662.07 2.27145 1654.7 12.3266 1647.67 18.0245ZM1529.43 257.337C1528.42 255.326 1528.09 251.639 1524.4 251.639C1520.72 251.974 1520.72 255.326 1519.71 257.672C1510 283.48 1499.95 308.953 1493.59 335.767C1489.57 351.855 1482.53 367.943 1484.21 385.037C1508.66 359.564 1522.39 328.393 1531.44 294.541C1535.12 281.804 1535.12 269.403 1529.43 257.337ZM1483.54 385.707C1482.87 385.372 1482.53 385.707 1483.2 386.378C1483.54 386.043 1483.54 385.707 1483.54 385.707ZM1664.42 146.395C1660.73 146.73 1658.39 144.384 1657.72 140.697C1656.38 132.318 1664.08 130.977 1668.77 128.631C1672.12 126.955 1674.47 130.307 1675.47 133.994C1673.46 139.356 1671.45 145.39 1664.42 146.395ZM1648.67 238.902C1636.28 242.589 1626.23 234.21 1627.24 220.803C1630.92 206.726 1637.62 192.649 1644.32 178.572C1645.66 175.89 1648 173.544 1650.68 175.555C1654.03 177.901 1651.02 180.583 1650.01 182.929C1645.66 192.984 1640.63 203.039 1636.95 213.429C1634.94 219.462 1632.26 226.501 1638.96 232.199C1643.31 235.551 1650.68 232.199 1656.04 230.188C1677.15 221.473 1693.89 197.006 1718.35 178.907C1720.02 177.901 1721.36 175.22 1723.37 177.901C1725.04 179.912 1723.03 181.588 1721.36 182.594C1688.87 206.056 1682.84 229.182 1648.67 238.902Z"/>
</mask>
<path d="M375.158 248.957C370.134 242.924 374.823 236.221 383.867 231.864C392.576 227.507 394.251 220.803 391.571 214.77C382.862 194.995 380.182 189.632 382.192 181.588C384.202 174.549 389.896 169.857 396.595 169.522C402.96 169.187 407.314 172.203 409.994 177.566C412.338 182.258 411.669 189.967 405.639 193.989C404.299 194.66 401.955 196 400.615 194.66C398.605 193.319 399.61 191.978 401.285 190.303C409.994 183.599 400.615 171.868 393.246 177.566C385.207 183.599 388.556 193.319 399.61 217.116C400.615 219.127 402.96 222.144 406.979 220.133C414.683 216.781 424.397 212.424 433.776 208.067C450.859 200.022 466.267 190.303 482.01 179.912C484.02 178.572 486.699 174.885 489.044 178.572C491.054 181.588 487.704 182.929 485.36 184.605C463.252 200.358 440.14 213.429 414.683 223.149C406.644 226.166 400.615 231.529 398.605 239.238C396.26 247.617 381.522 256.666 375.158 248.957ZM385.877 245.271C393.581 242.254 396.595 231.193 389.896 234.545C375.493 241.584 379.512 247.952 385.877 245.271ZM629.392 177.901C632.407 179.912 630.397 181.923 628.722 183.264C606.28 203.039 588.527 224.155 561.73 239.238C551.347 244.935 538.618 252.98 527.899 243.595C516.511 233.204 524.215 219.798 528.904 208.067C531.919 200.358 536.608 192.984 539.288 185.275C541.298 179.242 539.958 175.555 531.919 178.572C513.161 185.945 498.758 199.017 485.025 212.759C481.675 216.446 478.66 220.468 475.311 224.49C473.301 226.836 471.291 231.193 467.942 228.847C465.262 226.836 466.602 222.814 467.942 219.462C475.646 201.028 482.68 182.258 490.719 163.824C505.457 130.307 520.865 96.7897 542.973 67.2947C551.347 56.234 560.725 45.8437 573.789 40.1458C590.202 33.1072 602.93 41.1513 602.595 59.2506C601.926 78.0201 591.542 93.1029 580.153 106.51C561.395 128.966 539.623 148.406 513.496 161.813C496.748 170.192 488.709 182.929 485.025 199.687C484.69 201.028 484.69 202.369 486.699 201.363C497.418 193.319 506.797 183.934 518.856 177.566C524.215 174.549 529.239 171.198 535.604 170.863C546.322 170.192 550.342 174.549 546.992 184.94C544.312 192.649 539.958 200.022 536.608 207.396C534.264 212.759 531.919 217.787 530.244 222.814C528.569 228.177 527.23 234.21 531.584 238.567C536.273 243.26 541.968 241.584 547.327 239.573C568.43 231.864 591.877 210.413 624.033 180.247C625.373 178.907 627.382 176.561 629.392 177.901ZM515.171 128.631C510.482 139.021 503.112 148.071 503.112 160.137C538.953 143.379 567.425 117.906 588.192 84.0532C591.877 78.0202 594.221 70.9816 596.231 64.2781C597.906 58.245 597.906 51.8768 592.547 47.1844C586.517 42.492 579.818 43.8327 573.789 47.1844C565.75 52.212 558.716 58.5802 552.686 65.954C537.613 85.3939 525.22 106.175 515.171 128.631ZM757.347 178.236C760.696 180.918 757.012 183.264 755.337 184.605C737.249 202.369 721.506 218.457 700.069 231.864C696.049 234.21 692.365 236.556 688.345 238.232C680.641 241.249 672.937 241.584 666.238 236.221C659.204 230.523 659.539 222.479 661.213 214.77C662.553 209.072 664.563 203.374 666.238 198.011C651.499 205.05 642.791 220.133 629.057 228.847C624.368 231.864 620.013 235.215 614.989 237.562C608.96 240.243 603.265 241.584 597.906 236.891C592.882 232.199 592.547 225.831 593.887 219.798C598.911 196 627.382 172.538 652.169 171.868C656.859 171.868 661.883 173.544 666.238 176.225C668.247 177.566 669.922 180.918 672.937 179.242C676.621 177.231 679.636 170.863 683.656 177.566C686.67 181.923 682.316 185.61 680.641 189.632C676.621 198.011 671.262 206.056 669.252 215.44C667.913 221.473 665.903 227.171 671.932 231.864C677.961 236.221 683.321 234.21 689.015 231.193C701.074 225.495 711.792 217.451 721.506 208.067C731.555 198.347 740.599 191.308 750.648 181.588C752.322 179.577 754.667 176.225 757.347 178.236ZM659.204 193.319C661.883 190.638 664.898 187.621 663.223 183.264C660.878 177.566 655.519 180.247 652.169 179.577C631.737 179.577 609.965 196.336 602.26 217.451C600.586 222.814 597.571 228.177 603.265 232.534C608.29 236.891 612.979 232.869 616.664 230.523C633.077 220.803 645.805 206.726 659.204 193.319ZM815.965 243.93C799.217 244.265 794.527 240.243 793.522 222.814C793.187 219.462 795.197 214.1 791.513 212.424C787.828 210.748 784.478 214.435 781.464 216.781C769.74 225.495 758.352 234.545 744.283 238.567C732.225 242.254 721.171 232.869 723.516 220.803C728.54 196.336 756.677 168.181 782.469 170.863C782.134 170.863 784.143 171.198 785.483 170.527C792.852 168.516 799.887 178.907 805.581 172.203C810.27 166.841 811.61 159.132 814.625 152.428C830.033 120.587 843.766 87.7401 867.213 59.9209C870.563 55.8988 874.248 51.5416 878.602 48.1899C889.991 40.1458 900.709 44.8382 902.719 58.9154C904.729 72.6574 900.039 85.0587 893.675 97.1249C874.248 132.988 845.441 160.807 815.965 188.291C807.256 196.336 802.231 204.715 800.556 216.446C797.542 234.21 807.256 242.924 824.674 236.891C837.402 232.534 848.456 224.49 857.835 215.105C870.563 202.704 878.937 193.319 891.665 180.583C893.005 179.242 896.355 176.896 896.69 177.231C900.374 180.247 896.355 182.258 895.015 183.934C879.272 203.374 865.539 217.787 845.106 232.534C836.732 238.902 827.353 243.595 815.965 243.93ZM833.383 163.824C858.839 138.351 883.961 112.208 895.015 76.3443C897.695 68.3002 900.374 58.9154 892 53.5526C882.622 47.5196 878.602 58.245 873.913 63.2726C852.475 87.4049 840.082 116.565 826.348 145.054C810.27 179.242 803.236 195.665 833.383 163.824ZM733.23 229.518C738.924 235.886 746.963 231.864 752.992 228.512C767.061 220.803 780.124 211.083 792.182 200.693C797.877 196 802.566 190.638 799.552 183.599C796.537 176.896 788.833 176.561 782.134 176.561C765.051 176.561 745.958 189.967 735.239 209.407C731.89 215.776 727.87 223.484 733.23 229.518ZM1025.65 178.236C1029 180.918 1025.31 183.264 1023.64 184.605C1005.55 202.369 989.809 218.457 968.371 231.864C964.352 234.21 960.667 236.556 956.648 238.232C948.944 241.249 941.24 241.584 934.54 236.221C927.506 230.523 927.841 222.479 929.516 214.77C930.856 209.072 932.865 203.374 934.54 198.011C919.802 205.05 911.093 220.133 897.36 228.847C892.67 231.864 888.316 235.215 883.291 237.562C877.262 240.243 871.568 241.584 866.209 236.891C861.184 232.199 860.849 225.831 862.189 219.798C867.213 196 895.685 172.538 920.472 171.868C925.161 171.868 930.186 173.544 934.54 176.225C936.55 177.566 938.225 180.918 941.239 179.242C944.924 177.231 947.939 170.863 951.958 177.566C954.973 181.923 950.618 185.61 948.943 189.632C944.924 198.011 939.565 206.056 937.555 215.44C936.215 221.473 934.205 227.171 940.235 231.864C946.264 236.221 951.623 234.21 957.318 231.193C969.376 225.495 980.095 217.451 989.809 208.067C999.857 198.347 1008.9 191.308 1018.95 181.588C1020.62 179.577 1022.97 176.225 1025.65 178.236ZM927.506 193.319C930.186 190.638 933.2 187.621 931.526 183.264C929.181 177.566 923.822 180.247 920.472 179.577C900.039 179.577 878.267 196.336 870.563 217.451C868.888 222.814 865.874 228.177 871.568 232.534C876.592 236.891 881.282 232.869 884.966 230.523C901.379 220.803 914.108 206.726 927.506 193.319ZM1036.37 173.879C1025.98 179.577 1024.64 189.967 1025.65 200.693C1033.35 193.654 1039.72 184.94 1049.1 179.912C1064.17 171.533 1076.56 177.901 1078.24 195.33C1079.91 210.413 1079.91 210.748 1093.98 205.385C1112.74 198.347 1127.14 190.638 1145.23 181.923C1148.91 179.912 1154.27 174.549 1156.62 178.907C1159.3 183.264 1151.93 184.605 1148.58 186.28C1128.15 197.341 1110.39 206.056 1088.29 213.765C1080.58 216.446 1075.56 220.468 1071.2 227.842C1064.5 239.908 1054.46 248.622 1039.38 248.622C1034.02 248.622 1027.66 249.293 1025.98 241.919C1024.64 235.886 1029 232.534 1033.02 229.853C1041.39 224.155 1051.11 221.138 1060.82 218.457C1070.2 215.44 1073.55 209.072 1072.54 199.352C1071.2 182.929 1063.83 179.242 1049.77 187.286C1036.37 194.995 1030 207.731 1022.63 220.133C1020.96 223.484 1020.62 229.182 1014.93 226.836C1011.25 225.16 1012.92 221.138 1013.59 218.122C1023.64 161.143 1047.09 110.197 1081.59 63.943C1090.3 52.5471 1099.34 41.4865 1110.39 31.4314C1118.77 23.7224 1128.48 18.6948 1139.2 15.6783C1159.3 9.98039 1174.71 25.0631 1170.02 45.5085C1163.32 75.674 1143.55 96.4546 1121.11 115.224C1094.65 137.345 1066.51 157.121 1036.37 173.879ZM1038.38 157.791C1037.37 160.137 1036.03 164.159 1037.04 165.5C1039.05 167.511 1042.06 164.83 1044.07 163.489C1080.92 141.368 1116.09 117.235 1144.56 84.3884C1155.61 71.6519 1163.65 56.9044 1165.33 35.4534C1165.33 27.0741 1155.61 19.3652 1143.22 22.0466C1129.82 25.0631 1118.43 31.7665 1109.05 41.8217C1077.57 75.674 1054.46 114.889 1038.38 157.791ZM1062.83 228.847C1063.83 227.842 1064.17 225.495 1061.82 225.16C1053.79 224.49 1047.42 229.518 1040.39 231.864C1039.05 232.534 1037.71 233.875 1036.37 234.88C1034.69 235.886 1032.01 237.226 1032.68 239.908C1033.69 243.26 1037.04 241.919 1040.05 242.589C1049.77 242.254 1057.14 236.891 1062.83 228.847ZM1230.98 248.957C1225.96 242.924 1230.64 236.221 1239.69 231.864C1248.4 227.507 1250.07 220.803 1247.39 214.77C1238.68 194.995 1236 189.632 1238.01 181.588C1240.02 174.549 1245.72 169.857 1252.42 169.522C1258.78 169.187 1263.14 172.203 1265.82 177.566C1268.16 182.258 1267.49 189.967 1261.46 193.989C1260.12 194.66 1257.78 196 1256.44 194.66C1254.43 193.319 1255.43 191.978 1257.11 190.303C1265.82 183.599 1256.44 171.868 1249.07 177.566C1241.03 183.599 1244.38 193.319 1255.43 217.116C1256.44 219.127 1258.78 222.144 1262.8 220.133C1270.5 216.781 1280.22 212.424 1289.6 208.067C1306.68 200.022 1322.09 190.303 1337.83 179.912C1339.84 178.572 1342.52 174.885 1344.87 178.572C1346.88 181.588 1343.53 182.929 1341.18 184.605C1319.07 200.358 1295.96 213.429 1270.5 223.149C1262.47 226.166 1256.44 231.529 1254.43 239.238C1252.08 247.617 1237.34 256.666 1230.98 248.957ZM1241.7 245.271C1249.4 242.254 1252.42 231.193 1245.72 234.545C1231.31 241.584 1235.33 247.952 1241.7 245.271ZM1471.15 178.236C1474.5 180.918 1470.81 183.264 1469.14 184.605C1451.05 202.369 1435.3 218.457 1413.87 231.864C1409.85 234.21 1406.16 236.556 1402.14 238.232C1394.44 241.249 1386.74 241.584 1380.04 236.221C1373 230.523 1373.34 222.479 1375.01 214.77C1376.35 209.072 1378.36 203.374 1380.04 198.011C1365.3 205.05 1356.59 220.133 1342.86 228.847C1338.17 231.864 1333.81 235.215 1328.79 237.562C1322.76 240.243 1317.06 241.584 1311.7 236.891C1306.68 232.199 1306.35 225.831 1307.69 219.798C1312.71 196 1341.18 172.538 1365.97 171.868C1370.66 171.868 1375.68 173.544 1380.04 176.225C1382.05 177.566 1383.72 180.918 1386.74 179.242C1390.42 177.231 1393.43 170.863 1397.45 177.566C1400.47 181.923 1396.11 185.61 1394.44 189.632C1390.42 198.011 1385.06 206.056 1383.05 215.44C1381.71 221.473 1379.7 227.171 1385.73 231.864C1391.76 236.221 1397.12 234.21 1402.81 231.193C1414.87 225.495 1425.59 217.451 1435.3 208.067C1445.35 198.347 1454.4 191.308 1464.45 181.588C1466.12 179.577 1468.47 176.225 1471.15 178.236ZM1373 193.319C1375.68 190.638 1378.7 187.621 1377.02 183.264C1374.68 177.566 1369.32 180.247 1365.97 179.577C1345.54 179.577 1323.76 196.336 1316.06 217.451C1314.38 222.814 1311.37 228.177 1317.06 232.534C1322.09 236.891 1326.78 232.869 1330.46 230.523C1346.88 220.803 1359.6 206.726 1373 193.319ZM1488.56 146.395C1484.88 146.73 1482.53 144.384 1481.86 140.697C1480.52 132.318 1488.23 130.977 1492.92 128.631C1496.27 126.955 1498.61 130.307 1499.62 133.994C1497.61 139.356 1495.6 145.39 1488.56 146.395ZM1472.82 238.902C1460.43 242.589 1450.38 234.21 1451.38 220.803C1455.07 206.726 1461.77 192.649 1468.47 178.572C1469.81 175.89 1472.15 173.544 1474.83 175.555C1478.18 177.901 1475.17 180.583 1474.16 182.929C1469.81 192.984 1464.78 203.039 1461.1 213.429C1459.09 219.462 1456.41 226.501 1463.11 232.199C1467.46 235.551 1474.83 232.199 1480.19 230.188C1501.29 221.473 1518.04 197.006 1542.49 178.907C1544.17 177.901 1545.51 175.22 1547.52 177.901C1549.19 179.912 1547.18 181.588 1545.51 182.594C1513.02 206.056 1506.99 229.182 1472.82 238.902ZM1566.27 163.489C1546.18 178.236 1542.49 202.369 1533.78 223.82C1530.77 230.858 1536.8 227.842 1539.81 226.166C1579.34 204.715 1617.52 185.61 1644.99 177.566C1646.66 177.231 1649.68 176.896 1650.01 179.912C1650.35 181.588 1648.67 182.258 1647 182.929C1642.31 184.605 1637.29 185.61 1632.6 186.951C1617.52 190.638 1560.24 221.809 1554.55 224.825C1545.51 229.853 1535.46 232.534 1531.1 238.567C1524.4 247.282 1536.8 256.666 1538.81 266.386C1541.82 279.458 1538.81 291.189 1535.46 302.585C1526.75 333.421 1511.68 361.91 1491.58 387.718C1491.24 388.389 1490.91 388.724 1490.57 389.059C1487.22 393.081 1483.87 397.103 1477.84 393.751C1472.82 391.07 1475.16 386.378 1476.17 382.02C1483.2 342.135 1495.26 303.59 1509.33 265.716C1510.34 262.364 1511.34 259.348 1512.68 256.331C1516.7 248.287 1515.03 244.935 1505.65 247.617C1502.3 246.611 1496.6 249.963 1495.6 244.935C1494.26 239.238 1500.96 236.556 1504.31 236.891C1521.72 238.232 1523.73 225.495 1529.09 213.765C1555.22 154.104 1580.01 94.1084 1618.19 40.8162C1627.91 27.7445 1637.96 15.3431 1651.35 5.95834C1659.06 0.930768 1668.1 -3.09128 1676.14 3.27697C1683.84 9.64522 1685.85 18.6948 1682.84 29.0852C1675.47 53.8878 1660.73 73.6629 1643.65 92.4325C1619.87 118.241 1594.41 142.373 1566.27 163.489ZM1647.67 18.0245C1629.92 32.772 1618.53 52.8823 1606.47 72.3222C1589.72 98.8008 1573.98 125.95 1564.93 156.115C1591.73 138.686 1615.18 117.235 1636.28 93.1029C1651.35 75.674 1665.76 57.9099 1674.13 36.4589C1677.48 27.4093 1682.17 15.6783 1671.79 8.97488C1662.07 2.27145 1654.7 12.3266 1647.67 18.0245ZM1529.43 257.337C1528.42 255.326 1528.09 251.639 1524.4 251.639C1520.72 251.974 1520.72 255.326 1519.71 257.672C1510 283.48 1499.95 308.953 1493.59 335.767C1489.57 351.855 1482.53 367.943 1484.21 385.037C1508.66 359.564 1522.39 328.393 1531.44 294.541C1535.12 281.804 1535.12 269.403 1529.43 257.337ZM1483.54 385.707C1482.87 385.372 1482.53 385.707 1483.2 386.378C1483.54 386.043 1483.54 385.707 1483.54 385.707ZM1664.42 146.395C1660.73 146.73 1658.39 144.384 1657.72 140.697C1656.38 132.318 1664.08 130.977 1668.77 128.631C1672.12 126.955 1674.47 130.307 1675.47 133.994C1673.46 139.356 1671.45 145.39 1664.42 146.395ZM1648.67 238.902C1636.28 242.589 1626.23 234.21 1627.24 220.803C1630.92 206.726 1637.62 192.649 1644.32 178.572C1645.66 175.89 1648 173.544 1650.68 175.555C1654.03 177.901 1651.02 180.583 1650.01 182.929C1645.66 192.984 1640.63 203.039 1636.95 213.429C1634.94 219.462 1632.26 226.501 1638.96 232.199C1643.31 235.551 1650.68 232.199 1656.04 230.188C1677.15 221.473 1693.89 197.006 1718.35 178.907C1720.02 177.901 1721.36 175.22 1723.37 177.901C1725.04 179.912 1723.03 181.588 1721.36 182.594C1688.87 206.056 1682.84 229.182 1648.67 238.902Z" fill="white"/>
<path d="M375.158 248.957C370.134 242.924 374.823 236.221 383.867 231.864C392.576 227.507 394.251 220.803 391.571 214.77C382.862 194.995 380.182 189.632 382.192 181.588C384.202 174.549 389.896 169.857 396.595 169.522C402.96 169.187 407.314 172.203 409.994 177.566C412.338 182.258 411.669 189.967 405.639 193.989C404.299 194.66 401.955 196 400.615 194.66C398.605 193.319 399.61 191.978 401.285 190.303C409.994 183.599 400.615 171.868 393.246 177.566C385.207 183.599 388.556 193.319 399.61 217.116C400.615 219.127 402.96 222.144 406.979 220.133C414.683 216.781 424.397 212.424 433.776 208.067C450.859 200.022 466.267 190.303 482.01 179.912C484.02 178.572 486.699 174.885 489.044 178.572C491.054 181.588 487.704 182.929 485.36 184.605C463.252 200.358 440.14 213.429 414.683 223.149C406.644 226.166 400.615 231.529 398.605 239.238C396.26 247.617 381.522 256.666 375.158 248.957ZM385.877 245.271C393.581 242.254 396.595 231.193 389.896 234.545C375.493 241.584 379.512 247.952 385.877 245.271ZM629.392 177.901C632.407 179.912 630.397 181.923 628.722 183.264C606.28 203.039 588.527 224.155 561.73 239.238C551.347 244.935 538.618 252.98 527.899 243.595C516.511 233.204 524.215 219.798 528.904 208.067C531.919 200.358 536.608 192.984 539.288 185.275C541.298 179.242 539.958 175.555 531.919 178.572C513.161 185.945 498.758 199.017 485.025 212.759C481.675 216.446 478.66 220.468 475.311 224.49C473.301 226.836 471.291 231.193 467.942 228.847C465.262 226.836 466.602 222.814 467.942 219.462C475.646 201.028 482.68 182.258 490.719 163.824C505.457 130.307 520.865 96.7897 542.973 67.2947C551.347 56.234 560.725 45.8437 573.789 40.1458C590.202 33.1072 602.93 41.1513 602.595 59.2506C601.926 78.0201 591.542 93.1029 580.153 106.51C561.395 128.966 539.623 148.406 513.496 161.813C496.748 170.192 488.709 182.929 485.025 199.687C484.69 201.028 484.69 202.369 486.699 201.363C497.418 193.319 506.797 183.934 518.856 177.566C524.215 174.549 529.239 171.198 535.604 170.863C546.322 170.192 550.342 174.549 546.992 184.94C544.312 192.649 539.958 200.022 536.608 207.396C534.264 212.759 531.919 217.787 530.244 222.814C528.569 228.177 527.23 234.21 531.584 238.567C536.273 243.26 541.968 241.584 547.327 239.573C568.43 231.864 591.877 210.413 624.033 180.247C625.373 178.907 627.382 176.561 629.392 177.901ZM515.171 128.631C510.482 139.021 503.112 148.071 503.112 160.137C538.953 143.379 567.425 117.906 588.192 84.0532C591.877 78.0202 594.221 70.9816 596.231 64.2781C597.906 58.245 597.906 51.8768 592.547 47.1844C586.517 42.492 579.818 43.8327 573.789 47.1844C565.75 52.212 558.716 58.5802 552.686 65.954C537.613 85.3939 525.22 106.175 515.171 128.631ZM757.347 178.236C760.696 180.918 757.012 183.264 755.337 184.605C737.249 202.369 721.506 218.457 700.069 231.864C696.049 234.21 692.365 236.556 688.345 238.232C680.641 241.249 672.937 241.584 666.238 236.221C659.204 230.523 659.539 222.479 661.213 214.77C662.553 209.072 664.563 203.374 666.238 198.011C651.499 205.05 642.791 220.133 629.057 228.847C624.368 231.864 620.013 235.215 614.989 237.562C608.96 240.243 603.265 241.584 597.906 236.891C592.882 232.199 592.547 225.831 593.887 219.798C598.911 196 627.382 172.538 652.169 171.868C656.859 171.868 661.883 173.544 666.238 176.225C668.247 177.566 669.922 180.918 672.937 179.242C676.621 177.231 679.636 170.863 683.656 177.566C686.67 181.923 682.316 185.61 680.641 189.632C676.621 198.011 671.262 206.056 669.252 215.44C667.913 221.473 665.903 227.171 671.932 231.864C677.961 236.221 683.321 234.21 689.015 231.193C701.074 225.495 711.792 217.451 721.506 208.067C731.555 198.347 740.599 191.308 750.648 181.588C752.322 179.577 754.667 176.225 757.347 178.236ZM659.204 193.319C661.883 190.638 664.898 187.621 663.223 183.264C660.878 177.566 655.519 180.247 652.169 179.577C631.737 179.577 609.965 196.336 602.26 217.451C600.586 222.814 597.571 228.177 603.265 232.534C608.29 236.891 612.979 232.869 616.664 230.523C633.077 220.803 645.805 206.726 659.204 193.319ZM815.965 243.93C799.217 244.265 794.527 240.243 793.522 222.814C793.187 219.462 795.197 214.1 791.513 212.424C787.828 210.748 784.478 214.435 781.464 216.781C769.74 225.495 758.352 234.545 744.283 238.567C732.225 242.254 721.171 232.869 723.516 220.803C728.54 196.336 756.677 168.181 782.469 170.863C782.134 170.863 784.143 171.198 785.483 170.527C792.852 168.516 799.887 178.907 805.581 172.203C810.27 166.841 811.61 159.132 814.625 152.428C830.033 120.587 843.766 87.7401 867.213 59.9209C870.563 55.8988 874.248 51.5416 878.602 48.1899C889.991 40.1458 900.709 44.8382 902.719 58.9154C904.729 72.6574 900.039 85.0587 893.675 97.1249C874.248 132.988 845.441 160.807 815.965 188.291C807.256 196.336 802.231 204.715 800.556 216.446C797.542 234.21 807.256 242.924 824.674 236.891C837.402 232.534 848.456 224.49 857.835 215.105C870.563 202.704 878.937 193.319 891.665 180.583C893.005 179.242 896.355 176.896 896.69 177.231C900.374 180.247 896.355 182.258 895.015 183.934C879.272 203.374 865.539 217.787 845.106 232.534C836.732 238.902 827.353 243.595 815.965 243.93ZM833.383 163.824C858.839 138.351 883.961 112.208 895.015 76.3443C897.695 68.3002 900.374 58.9154 892 53.5526C882.622 47.5196 878.602 58.245 873.913 63.2726C852.475 87.4049 840.082 116.565 826.348 145.054C810.27 179.242 803.236 195.665 833.383 163.824ZM733.23 229.518C738.924 235.886 746.963 231.864 752.992 228.512C767.061 220.803 780.124 211.083 792.182 200.693C797.877 196 802.566 190.638 799.552 183.599C796.537 176.896 788.833 176.561 782.134 176.561C765.051 176.561 745.958 189.967 735.239 209.407C731.89 215.776 727.87 223.484 733.23 229.518ZM1025.65 178.236C1029 180.918 1025.31 183.264 1023.64 184.605C1005.55 202.369 989.809 218.457 968.371 231.864C964.352 234.21 960.667 236.556 956.648 238.232C948.944 241.249 941.24 241.584 934.54 236.221C927.506 230.523 927.841 222.479 929.516 214.77C930.856 209.072 932.865 203.374 934.54 198.011C919.802 205.05 911.093 220.133 897.36 228.847C892.67 231.864 888.316 235.215 883.291 237.562C877.262 240.243 871.568 241.584 866.209 236.891C861.184 232.199 860.849 225.831 862.189 219.798C867.213 196 895.685 172.538 920.472 171.868C925.161 171.868 930.186 173.544 934.54 176.225C936.55 177.566 938.225 180.918 941.239 179.242C944.924 177.231 947.939 170.863 951.958 177.566C954.973 181.923 950.618 185.61 948.943 189.632C944.924 198.011 939.565 206.056 937.555 215.44C936.215 221.473 934.205 227.171 940.235 231.864C946.264 236.221 951.623 234.21 957.318 231.193C969.376 225.495 980.095 217.451 989.809 208.067C999.857 198.347 1008.9 191.308 1018.95 181.588C1020.62 179.577 1022.97 176.225 1025.65 178.236ZM927.506 193.319C930.186 190.638 933.2 187.621 931.526 183.264C929.181 177.566 923.822 180.247 920.472 179.577C900.039 179.577 878.267 196.336 870.563 217.451C868.888 222.814 865.874 228.177 871.568 232.534C876.592 236.891 881.282 232.869 884.966 230.523C901.379 220.803 914.108 206.726 927.506 193.319ZM1036.37 173.879C1025.98 179.577 1024.64 189.967 1025.65 200.693C1033.35 193.654 1039.72 184.94 1049.1 179.912C1064.17 171.533 1076.56 177.901 1078.24 195.33C1079.91 210.413 1079.91 210.748 1093.98 205.385C1112.74 198.347 1127.14 190.638 1145.23 181.923C1148.91 179.912 1154.27 174.549 1156.62 178.907C1159.3 183.264 1151.93 184.605 1148.58 186.28C1128.15 197.341 1110.39 206.056 1088.29 213.765C1080.58 216.446 1075.56 220.468 1071.2 227.842C1064.5 239.908 1054.46 248.622 1039.38 248.622C1034.02 248.622 1027.66 249.293 1025.98 241.919C1024.64 235.886 1029 232.534 1033.02 229.853C1041.39 224.155 1051.11 221.138 1060.82 218.457C1070.2 215.44 1073.55 209.072 1072.54 199.352C1071.2 182.929 1063.83 179.242 1049.77 187.286C1036.37 194.995 1030 207.731 1022.63 220.133C1020.96 223.484 1020.62 229.182 1014.93 226.836C1011.25 225.16 1012.92 221.138 1013.59 218.122C1023.64 161.143 1047.09 110.197 1081.59 63.943C1090.3 52.5471 1099.34 41.4865 1110.39 31.4314C1118.77 23.7224 1128.48 18.6948 1139.2 15.6783C1159.3 9.98039 1174.71 25.0631 1170.02 45.5085C1163.32 75.674 1143.55 96.4546 1121.11 115.224C1094.65 137.345 1066.51 157.121 1036.37 173.879ZM1038.38 157.791C1037.37 160.137 1036.03 164.159 1037.04 165.5C1039.05 167.511 1042.06 164.83 1044.07 163.489C1080.92 141.368 1116.09 117.235 1144.56 84.3884C1155.61 71.6519 1163.65 56.9044 1165.33 35.4534C1165.33 27.0741 1155.61 19.3652 1143.22 22.0466C1129.82 25.0631 1118.43 31.7665 1109.05 41.8217C1077.57 75.674 1054.46 114.889 1038.38 157.791ZM1062.83 228.847C1063.83 227.842 1064.17 225.495 1061.82 225.16C1053.79 224.49 1047.42 229.518 1040.39 231.864C1039.05 232.534 1037.71 233.875 1036.37 234.88C1034.69 235.886 1032.01 237.226 1032.68 239.908C1033.69 243.26 1037.04 241.919 1040.05 242.589C1049.77 242.254 1057.14 236.891 1062.83 228.847ZM1230.98 248.957C1225.96 242.924 1230.64 236.221 1239.69 231.864C1248.4 227.507 1250.07 220.803 1247.39 214.77C1238.68 194.995 1236 189.632 1238.01 181.588C1240.02 174.549 1245.72 169.857 1252.42 169.522C1258.78 169.187 1263.14 172.203 1265.82 177.566C1268.16 182.258 1267.49 189.967 1261.46 193.989C1260.12 194.66 1257.78 196 1256.44 194.66C1254.43 193.319 1255.43 191.978 1257.11 190.303C1265.82 183.599 1256.44 171.868 1249.07 177.566C1241.03 183.599 1244.38 193.319 1255.43 217.116C1256.44 219.127 1258.78 222.144 1262.8 220.133C1270.5 216.781 1280.22 212.424 1289.6 208.067C1306.68 200.022 1322.09 190.303 1337.83 179.912C1339.84 178.572 1342.52 174.885 1344.87 178.572C1346.88 181.588 1343.53 182.929 1341.18 184.605C1319.07 200.358 1295.96 213.429 1270.5 223.149C1262.47 226.166 1256.44 231.529 1254.43 239.238C1252.08 247.617 1237.34 256.666 1230.98 248.957ZM1241.7 245.271C1249.4 242.254 1252.42 231.193 1245.72 234.545C1231.31 241.584 1235.33 247.952 1241.7 245.271ZM1471.15 178.236C1474.5 180.918 1470.81 183.264 1469.14 184.605C1451.05 202.369 1435.3 218.457 1413.87 231.864C1409.85 234.21 1406.16 236.556 1402.14 238.232C1394.44 241.249 1386.74 241.584 1380.04 236.221C1373 230.523 1373.34 222.479 1375.01 214.77C1376.35 209.072 1378.36 203.374 1380.04 198.011C1365.3 205.05 1356.59 220.133 1342.86 228.847C1338.17 231.864 1333.81 235.215 1328.79 237.562C1322.76 240.243 1317.06 241.584 1311.7 236.891C1306.68 232.199 1306.35 225.831 1307.69 219.798C1312.71 196 1341.18 172.538 1365.97 171.868C1370.66 171.868 1375.68 173.544 1380.04 176.225C1382.05 177.566 1383.72 180.918 1386.74 179.242C1390.42 177.231 1393.43 170.863 1397.45 177.566C1400.47 181.923 1396.11 185.61 1394.44 189.632C1390.42 198.011 1385.06 206.056 1383.05 215.44C1381.71 221.473 1379.7 227.171 1385.73 231.864C1391.76 236.221 1397.12 234.21 1402.81 231.193C1414.87 225.495 1425.59 217.451 1435.3 208.067C1445.35 198.347 1454.4 191.308 1464.45 181.588C1466.12 179.577 1468.47 176.225 1471.15 178.236ZM1373 193.319C1375.68 190.638 1378.7 187.621 1377.02 183.264C1374.68 177.566 1369.32 180.247 1365.97 179.577C1345.54 179.577 1323.76 196.336 1316.06 217.451C1314.38 222.814 1311.37 228.177 1317.06 232.534C1322.09 236.891 1326.78 232.869 1330.46 230.523C1346.88 220.803 1359.6 206.726 1373 193.319ZM1488.56 146.395C1484.88 146.73 1482.53 144.384 1481.86 140.697C1480.52 132.318 1488.23 130.977 1492.92 128.631C1496.27 126.955 1498.61 130.307 1499.62 133.994C1497.61 139.356 1495.6 145.39 1488.56 146.395ZM1472.82 238.902C1460.43 242.589 1450.38 234.21 1451.38 220.803C1455.07 206.726 1461.77 192.649 1468.47 178.572C1469.81 175.89 1472.15 173.544 1474.83 175.555C1478.18 177.901 1475.17 180.583 1474.16 182.929C1469.81 192.984 1464.78 203.039 1461.1 213.429C1459.09 219.462 1456.41 226.501 1463.11 232.199C1467.46 235.551 1474.83 232.199 1480.19 230.188C1501.29 221.473 1518.04 197.006 1542.49 178.907C1544.17 177.901 1545.51 175.22 1547.52 177.901C1549.19 179.912 1547.18 181.588 1545.51 182.594C1513.02 206.056 1506.99 229.182 1472.82 238.902ZM1566.27 163.489C1546.18 178.236 1542.49 202.369 1533.78 223.82C1530.77 230.858 1536.8 227.842 1539.81 226.166C1579.34 204.715 1617.52 185.61 1644.99 177.566C1646.66 177.231 1649.68 176.896 1650.01 179.912C1650.35 181.588 1648.67 182.258 1647 182.929C1642.31 184.605 1637.29 185.61 1632.6 186.951C1617.52 190.638 1560.24 221.809 1554.55 224.825C1545.51 229.853 1535.46 232.534 1531.1 238.567C1524.4 247.282 1536.8 256.666 1538.81 266.386C1541.82 279.458 1538.81 291.189 1535.46 302.585C1526.75 333.421 1511.68 361.91 1491.58 387.718C1491.24 388.389 1490.91 388.724 1490.57 389.059C1487.22 393.081 1483.87 397.103 1477.84 393.751C1472.82 391.07 1475.16 386.378 1476.17 382.02C1483.2 342.135 1495.26 303.59 1509.33 265.716C1510.34 262.364 1511.34 259.348 1512.68 256.331C1516.7 248.287 1515.03 244.935 1505.65 247.617C1502.3 246.611 1496.6 249.963 1495.6 244.935C1494.26 239.238 1500.96 236.556 1504.31 236.891C1521.72 238.232 1523.73 225.495 1529.09 213.765C1555.22 154.104 1580.01 94.1084 1618.19 40.8162C1627.91 27.7445 1637.96 15.3431 1651.35 5.95834C1659.06 0.930768 1668.1 -3.09128 1676.14 3.27697C1683.84 9.64522 1685.85 18.6948 1682.84 29.0852C1675.47 53.8878 1660.73 73.6629 1643.65 92.4325C1619.87 118.241 1594.41 142.373 1566.27 163.489ZM1647.67 18.0245C1629.92 32.772 1618.53 52.8823 1606.47 72.3222C1589.72 98.8008 1573.98 125.95 1564.93 156.115C1591.73 138.686 1615.18 117.235 1636.28 93.1029C1651.35 75.674 1665.76 57.9099 1674.13 36.4589C1677.48 27.4093 1682.17 15.6783 1671.79 8.97488C1662.07 2.27145 1654.7 12.3266 1647.67 18.0245ZM1529.43 257.337C1528.42 255.326 1528.09 251.639 1524.4 251.639C1520.72 251.974 1520.72 255.326 1519.71 257.672C1510 283.48 1499.95 308.953 1493.59 335.767C1489.57 351.855 1482.53 367.943 1484.21 385.037C1508.66 359.564 1522.39 328.393 1531.44 294.541C1535.12 281.804 1535.12 269.403 1529.43 257.337ZM1483.54 385.707C1482.87 385.372 1482.53 385.707 1483.2 386.378C1483.54 386.043 1483.54 385.707 1483.54 385.707ZM1664.42 146.395C1660.73 146.73 1658.39 144.384 1657.72 140.697C1656.38 132.318 1664.08 130.977 1668.77 128.631C1672.12 126.955 1674.47 130.307 1675.47 133.994C1673.46 139.356 1671.45 145.39 1664.42 146.395ZM1648.67 238.902C1636.28 242.589 1626.23 234.21 1627.24 220.803C1630.92 206.726 1637.62 192.649 1644.32 178.572C1645.66 175.89 1648 173.544 1650.68 175.555C1654.03 177.901 1651.02 180.583 1650.01 182.929C1645.66 192.984 1640.63 203.039 1636.95 213.429C1634.94 219.462 1632.26 226.501 1638.96 232.199C1643.31 235.551 1650.68 232.199 1656.04 230.188C1677.15 221.473 1693.89 197.006 1718.35 178.907C1720.02 177.901 1721.36 175.22 1723.37 177.901C1725.04 179.912 1723.03 181.588 1721.36 182.594C1688.87 206.056 1682.84 229.182 1648.67 238.902Z" stroke="white" stroke-width="2" mask="url(#path-9-outside-1_6327_10750)"/>
</g>
<defs>
<clipPath id="clip0_6327_10750">
<rect width="1724" height="395" fill="white"/>
</clipPath>
</defs>
</svg>
