<svg width="current" height="current" viewBox="0 0 881 341" fill="none" xmlns="http://www.w3.org/2000/svg">
<path d="M880.5 206.5C880.5 224.832 868.33 242.393 846.091 258.448C823.862 274.494 791.665 288.966 751.835 301.128C672.179 325.449 562.105 340.5 440.5 340.5C318.895 340.5 208.821 325.449 129.165 301.128C89.3346 288.966 57.1376 274.494 34.9093 258.448C12.6695 242.393 0.5 224.832 0.5 206.5C0.5 188.168 12.6695 170.607 34.9093 154.552C57.1376 138.506 89.3346 124.034 129.165 111.872C208.821 87.5507 318.895 72.5 440.5 72.5C562.105 72.5 672.179 87.5507 751.835 111.872C791.665 124.034 823.862 138.506 846.091 154.552C868.33 170.607 880.5 188.168 880.5 206.5Z" stroke="url(#paint0_linear_143_3)"/>
<path d="M826.5 206.5C826.5 224.863 815.931 242.427 796.661 258.469C777.393 274.509 749.482 288.975 714.949 301.134C645.886 325.451 550.445 340.5 445 340.5C339.555 340.5 244.114 325.451 175.051 301.134C140.518 288.975 112.607 274.509 93.3393 258.469C74.0687 242.427 63.5 224.863 63.5 206.5C63.5 188.137 74.0687 170.573 93.3393 154.531C112.607 138.491 140.518 124.025 175.051 111.866C244.114 87.5493 339.555 72.5 445 72.5C550.445 72.5 645.886 87.5493 714.949 111.866C749.482 124.025 777.393 138.491 796.661 154.531C815.931 170.573 826.5 188.137 826.5 206.5Z" stroke="url(#paint1_linear_143_3)"/>
<path d="M802.5 206.5C802.5 224.882 792.877 242.45 775.354 258.485C757.831 274.52 732.448 288.983 701.039 301.14C638.225 325.452 551.414 340.5 455.5 340.5C359.586 340.5 272.775 325.452 209.961 301.14C178.552 288.983 153.169 274.52 135.646 258.485C118.123 242.45 108.5 224.882 108.5 206.5C108.5 188.118 118.123 170.55 135.646 154.515C153.169 138.48 178.552 124.017 209.961 111.86C272.775 87.5481 359.586 72.5 455.5 72.5C551.414 72.5 638.225 87.5481 701.039 111.86C732.448 124.017 757.831 138.48 775.354 154.515C792.877 170.55 802.5 188.118 802.5 206.5Z" stroke="url(#paint2_linear_143_3)"/>
<path d="M597.5 137.5C597.5 213.114 529.275 274.5 445 274.5C360.725 274.5 292.5 213.114 292.5 137.5C292.5 61.8859 360.725 0.5 445 0.5C529.275 0.5 597.5 61.8859 597.5 137.5Z" stroke="url(#paint3_linear_143_3)"/>
<path d="M591.5 173C591.5 195.38 575.177 215.746 548.555 230.546C521.95 245.336 485.162 254.5 444.5 254.5C403.838 254.5 367.05 245.336 340.445 230.546C313.823 215.746 297.5 195.38 297.5 173C297.5 150.62 313.823 130.254 340.445 115.454C367.05 100.664 403.838 91.5 444.5 91.5C485.162 91.5 521.95 100.664 548.555 115.454C575.177 130.254 591.5 150.62 591.5 173Z" stroke="url(#paint4_linear_143_3)"/>
<defs>
<linearGradient id="paint0_linear_143_3" x1="440.5" y1="72" x2="440.5" y2="341" gradientUnits="userSpaceOnUse">
<stop stop-opacity="0"/>
<stop offset="0.479167" stop-color="#763CAC"/>
</linearGradient>
<linearGradient id="paint1_linear_143_3" x1="445" y1="72" x2="445" y2="341" gradientUnits="userSpaceOnUse">
<stop stop-opacity="0"/>
<stop offset="0.479167" stop-color="#763CAC"/>
</linearGradient>
<linearGradient id="paint2_linear_143_3" x1="455.5" y1="72" x2="455.5" y2="341" gradientUnits="userSpaceOnUse">
<stop stop-opacity="0"/>
<stop offset="0.479167" stop-color="#763CAC"/>
</linearGradient>
<linearGradient id="paint3_linear_143_3" x1="445" y1="0" x2="445" y2="275" gradientUnits="userSpaceOnUse">
<stop offset="0.197917" stop-opacity="0"/>
<stop offset="1" stop-color="#763CAC"/>
</linearGradient>
<linearGradient id="paint4_linear_143_3" x1="444.5" y1="91" x2="444.5" y2="255" gradientUnits="userSpaceOnUse">
<stop offset="0.197917" stop-opacity="0"/>
<stop offset="1" stop-color="#763CAC"/>
</linearGradient>
</defs>
</svg>
