<svg width="282" height="326" viewBox="0 0 282 326" fill="none" xmlns="http://www.w3.org/2000/svg">
<path d="M281 0.5C237.333 48 151.8 170 159 278" stroke="url(#paint0_linear_143_4)"/>
<path d="M219.5 17.5C175.833 65 142.8 179.5 150 287.5" stroke="url(#paint1_linear_143_4)"/>
<path d="M168 16C149 82 133.5 253.5 133.5 307.5" stroke="url(#paint2_linear_143_4)"/>
<path d="M0.5 10C44.1667 57.5 125.2 202.5 118 310.5" stroke="url(#paint3_linear_143_4)"/>
<path d="M62 10C105.667 57.5 134.2 212 127 320" stroke="url(#paint4_linear_143_4)"/>
<path d="M111 13C130.253 85.3321 132 266.819 132 326" stroke="url(#paint5_linear_143_4)"/>
<defs>
<linearGradient id="paint0_linear_143_4" x1="219.786" y1="0.5" x2="219.786" y2="278" gradientUnits="userSpaceOnUse">
<stop stop-color="#3D1768"/>
<stop offset="1" stop-color="#3D1768" stop-opacity="0"/>
</linearGradient>
<linearGradient id="paint1_linear_143_4" x1="184.256" y1="17.5" x2="184.256" y2="287.5" gradientUnits="userSpaceOnUse">
<stop stop-color="#3D1768"/>
<stop offset="1" stop-color="#3D1768" stop-opacity="0"/>
</linearGradient>
<linearGradient id="paint2_linear_143_4" x1="142.75" y1="33" x2="142.75" y2="304" gradientUnits="userSpaceOnUse">
<stop stop-color="#3D1768"/>
<stop offset="1" stop-color="#3D1768" stop-opacity="0"/>
</linearGradient>
<linearGradient id="paint3_linear_143_4" x1="64.2522" y1="35" x2="64.2522" y2="310.5" gradientUnits="userSpaceOnUse">
<stop stop-color="#3D1768"/>
<stop offset="1" stop-color="#3D1768" stop-opacity="0"/>
</linearGradient>
<linearGradient id="paint4_linear_143_4" x1="98.4225" y1="33" x2="98.4225" y2="320" gradientUnits="userSpaceOnUse">
<stop stop-color="#3D1768"/>
<stop offset="1" stop-color="#3D1768" stop-opacity="0"/>
</linearGradient>
<linearGradient id="paint5_linear_143_4" x1="134" y1="39" x2="134" y2="336" gradientUnits="userSpaceOnUse">
<stop stop-color="#3D1768"/>
<stop offset="1" stop-color="#3D1768" stop-opacity="0"/>
</linearGradient>
</defs>
</svg>
