<svg width="current" height="current" viewBox="0 0 512 512" fill="none" xmlns="http://www.w3.org/2000/svg">
<path d="M256.303 0.0023712C297.858 0.0023712 336.986 9.71092 373.687 28.5166L378.54 30.9431L374.294 34.2796C363.981 42.4692 355.791 53.0853 350.635 65.218L349.118 68.5545L346.085 67.0379C317.877 53.692 287.848 46.7157 256.607 46.7157C141.043 46.7157 47.3175 140.744 47.3175 256.005C47.3175 371.265 140.739 465.294 256.303 465.294C371.867 465.294 465.592 371.265 465.592 256.005C465.592 228.403 460.436 201.408 449.517 175.929L448 172.592L451.336 171.076C463.773 166.526 474.692 158.943 483.488 149.237L486.825 144.991L488.948 149.844C504.417 183.512 512 219.303 512 255.398C512 396.441 397.043 511.398 256 511.398C114.957 511.398 0 396.441 0 255.398C0 114.355 114.957 -0.601874 256.303 0.0023712ZM256.303 139.531C320.303 139.531 372.777 191.701 373.081 256.308C373.081 320.915 320.91 373.085 256.303 373.085C191.697 373.085 139.526 320.915 139.526 256.308C139.526 191.701 192 139.531 256.303 139.531ZM423.431 43.0759C452.914 43.0759 476.815 66.9766 476.815 96.4597C476.815 125.943 452.914 149.844 423.431 149.844C393.948 149.844 370.047 125.943 370.047 96.4597C370.047 66.9766 393.948 43.0759 423.431 43.0759Z" fill="#3880FF"/>
</svg>
