<svg width="current" height="current" viewBox="0 0 512 512" fill="none" xmlns="http://www.w3.org/2000/svg">
<g id="Type=Default, showSymbol=True, showText=False">
<g id="Union">
<path d="M440.703 190.733C458.926 186.852 500.198 155.802 507.366 139.363C448.022 179.748 410.289 168.424 391.265 162.714C390.455 162.471 389.679 162.238 388.936 162.02C384.933 160.874 375.668 156.714 367.034 151.525C366.436 151.165 365.847 150.811 365.267 150.463C347.264 139.655 337.928 134.05 323.464 113.021C315.262 101.105 307.064 82.1665 304.375 71.3133C299.935 53.3699 301.165 25.7642 309.603 2C281.595 26.9944 277.278 75.2777 286.666 107.2C287.857 111.243 294.511 127.123 298.112 132.944C322.318 171.883 368.538 206.104 440.703 190.733Z" fill="#21609B"/>
<path d="M389.214 299.299C435.323 299.618 483.483 278.068 512 247.812C487.05 311.147 414.807 351.86 317.922 338.91C236.805 328.056 159.529 246.425 151.567 164.631C145.746 105.103 166.496 69.5743 200.683 26.4799C188.801 49.0196 184.361 66.4038 183.254 77.4919C170.265 206.261 286.117 298.628 389.214 299.299Z" fill="#21609B"/>
<path d="M500.118 378.52L497.825 384.458C458.768 460.504 389.572 507.166 290.869 509.223C244.728 510.174 200.761 498.337 172.043 485.459C110.06 457.613 57.9296 405.969 29.4573 350.791C-11.3836 271.693 -18.7477 161.662 66.1716 79.4766C66.8259 79.4766 64.2509 83.9317 61.676 88.3868C59.1011 92.8419 56.5262 97.297 57.1804 97.297L54.8431 104.902C-6.3512 296.486 182.18 460.666 365.45 441.89C409.495 437.377 465.662 413.255 500.118 378.52Z" fill="#21609B"/>
</g>
</g>
</svg>
