<svg width="current" height="current" viewBox="0 0 31 31" fill="none" xmlns="http://www.w3.org/2000/svg">
<g clip-path="url(#clip0_190_4)">
<path d="M7.9926 11.2619C8.55964 10.6948 9.18868 10.2273 9.85776 9.85784C13.5868 7.8028 18.3686 8.89555 20.7659 12.5303L17.8648 15.4301C17.033 13.5326 14.9676 12.4528 12.9126 12.9126C12.1388 13.0857 11.4039 13.4719 10.8033 14.0726L5.24393 19.6345C3.55572 21.3227 3.55572 24.0688 5.24393 25.757C6.93214 27.4452 9.67822 27.4452 11.3664 25.757L13.0805 24.0429C14.6395 24.6616 16.3109 24.9083 17.9617 24.7856L14.1784 28.5689C10.935 31.8123 5.67664 31.8123 2.43326 28.5689C-0.810111 25.3256 -0.810111 20.0672 2.43326 16.8238L7.9926 11.2619ZM16.8224 2.43205L13.0391 6.21534C14.6886 6.09134 16.3613 6.33934 17.9203 6.95676L19.6331 5.24401C21.3213 3.5558 24.0674 3.5558 25.7556 5.24401C27.4438 6.93222 27.4438 9.6783 25.7556 11.3665L20.195 16.9271C18.5016 18.6205 15.7516 18.6063 14.0725 16.9271C13.6811 16.5358 13.344 16.0488 13.1334 15.5696L10.2323 18.4694C10.5372 18.9318 10.8536 19.3309 11.2605 19.7378C12.3093 20.7866 13.6449 21.5681 15.182 21.9388C17.1738 22.418 19.3076 22.1532 21.1405 21.1418C21.8096 20.7724 22.4386 20.3048 23.0056 19.7378L28.565 14.1772C31.8096 10.9338 31.8096 5.67543 28.5663 2.43205C25.3229 -0.810033 20.0658 -0.810033 16.8224 2.43205Z" fill="white"/>
</g>
<defs>
<clipPath id="clip0_190_4">
<rect width="31" height="31" fill="#797777"/>
</clipPath>
</defs>
</svg>
