<svg width="React" height="React" viewBox="0 0 156 137" fill="none" xmlns="http://www.w3.org/2000/svg">
<g clip-path="url(#clip0_1_461)">
<path d="M78 82.2245C85.6791 82.2245 91.9043 76.0799 91.9043 68.5001C91.9043 60.9203 85.6791 54.7756 78 54.7756C70.3208 54.7756 64.0956 60.9203 64.0956 68.5001C64.0956 76.0799 70.3208 82.2245 78 82.2245Z" fill="#61DAFB"/>
<path fill-rule="evenodd" clip-rule="evenodd" d="M11.4322 59.9364C8.05857 62.9425 6.64131 65.8418 6.64131 68.5002C6.64131 71.1585 8.05857 74.0578 11.4322 77.0639C14.8055 80.0696 19.8692 82.9235 26.403 85.3859C39.4482 90.3024 57.6896 93.4106 78 93.4106C98.3104 93.4106 116.552 90.3024 129.597 85.3859C136.131 82.9235 141.195 80.0696 144.568 77.0639C147.941 74.0578 149.359 71.1585 149.359 68.5002C149.359 65.8418 147.941 62.9425 144.568 59.9364C141.195 56.9307 136.131 54.0768 129.597 51.6144C116.552 46.6979 98.3104 43.5897 78 43.5897C57.6896 43.5897 39.4482 46.6979 26.403 51.6144C19.8692 54.0768 14.8055 56.9307 11.4322 59.9364ZM24.0844 45.6205C38.0422 40.3602 57.1051 37.1738 78 37.1738C98.8949 37.1738 117.958 40.3602 131.916 45.6205C138.883 48.2465 144.746 51.4516 148.923 55.174C153.101 58.896 155.859 63.3939 155.859 68.5002C155.859 73.6065 153.101 78.1043 148.923 81.8263C144.746 85.5487 138.883 88.7538 131.916 91.3798C117.958 96.6402 98.8949 99.8265 78 99.8265C57.1051 99.8265 38.0422 96.6402 24.0844 91.3798C17.1167 88.7538 11.2542 85.5487 7.07667 81.8263C2.89949 78.1043 0.141312 73.6065 0.141312 68.5002C0.141312 63.3939 2.89949 58.896 7.07667 55.174C11.2542 51.4516 17.1167 48.2465 24.0844 45.6205Z" fill="#61DAFB"/>
<path fill-rule="evenodd" clip-rule="evenodd" d="M52.2297 7.31472C47.9055 5.93389 44.6531 6.17205 42.3207 7.50124C39.9883 8.83043 38.1531 11.4916 37.2025 15.8784C36.252 20.2648 36.2799 26.0203 37.3863 32.8368C39.5953 46.4464 45.989 63.5936 56.1442 80.9553C66.2993 98.317 78.1471 112.356 88.9833 121.049C94.4107 125.403 99.4465 128.305 103.77 129.685C108.095 131.066 111.347 130.828 113.679 129.499C116.012 128.17 117.847 125.509 118.798 121.122C119.748 116.735 119.72 110.98 118.614 104.163C116.405 90.5538 110.011 73.4066 99.8558 56.0449C89.7007 38.6832 77.8529 24.6442 67.0167 15.951C61.5893 11.597 56.5535 8.6954 52.2297 7.31472ZM71.1163 10.9721C82.7105 20.2733 95.0376 34.9756 105.485 52.8369C115.932 70.6983 122.668 88.5869 125.032 103.148C126.212 110.418 126.331 117.032 125.154 122.464C123.977 127.896 121.409 132.502 116.929 135.055C112.449 137.608 107.124 137.5 101.77 135.79C96.4149 134.08 90.6716 130.671 84.8837 126.028C73.2895 116.727 60.9624 102.025 50.515 84.1633C40.0675 66.3019 33.3317 48.4133 30.9681 33.8518C29.7883 26.5826 29.6691 19.9687 30.8463 14.5365C32.0233 9.10471 34.5905 4.49805 39.0707 1.9449C43.5508 -0.608244 48.8762 -0.499416 54.2304 1.21031C59.5851 2.92018 65.3284 6.32899 71.1163 10.9721Z" fill="#61DAFB"/>
<path fill-rule="evenodd" clip-rule="evenodd" d="M118.798 15.8785C117.847 11.4917 116.012 8.83051 113.679 7.50132C111.347 6.17213 108.095 5.93398 103.77 7.3148C99.4465 8.69549 94.4107 11.5971 88.9833 15.9511C78.1471 24.6442 66.2994 38.6833 56.1442 56.045C45.989 73.4067 39.5953 90.5539 37.3863 104.164C36.2799 110.98 36.252 116.735 37.2025 121.122C38.1531 125.509 39.9883 128.17 42.3207 129.499C44.6531 130.828 47.9055 131.066 52.2297 129.686C56.5535 128.305 61.5893 125.403 67.0167 121.049C77.8529 112.356 89.7007 98.3171 99.8559 80.9554C110.011 63.5937 116.405 46.4465 118.614 32.8369C119.72 26.0204 119.748 20.2649 118.798 15.8785ZM125.032 33.8519C122.668 48.4134 115.932 66.302 105.485 84.1634C95.0376 102.025 82.7105 116.727 71.1163 126.028C65.3285 130.671 59.5851 134.08 54.2304 135.79C48.8762 137.5 43.5508 137.609 39.0707 135.055C34.5905 132.502 32.0233 127.896 30.8463 122.464C29.6691 117.032 29.7883 110.418 30.9682 103.149C33.3317 88.587 40.0676 70.6984 50.515 52.837C60.9625 34.9757 73.2895 20.2734 84.8837 10.9722C90.6716 6.32907 96.4149 2.92026 101.77 1.21039C107.124 -0.499333 112.449 -0.608161 116.929 1.94499C121.41 4.49814 123.977 9.1048 125.154 14.5366C126.331 19.9688 126.212 26.5827 125.032 33.8519Z" fill="#61DAFB"/>
</g>
<defs>
<clipPath id="clip0_1_461">
<rect width="156" height="137" fill="white"/>
</clipPath>
</defs>
</svg>
