<svg width="current" height="current" viewBox="0 0 152 115" fill="none" xmlns="http://www.w3.org/2000/svg">
<g clip-path="url(#clip0_1_453)">
<path d="M130.801 66.0982C125.501 66.1262 120.895 67.4146 117.038 69.3191C115.623 66.4903 114.208 63.9696 113.958 62.1211C113.681 59.9645 113.348 58.6481 113.681 56.0714C114.014 53.4947 115.512 49.8257 115.484 49.5456C115.457 49.2655 115.151 47.9492 112.099 47.9212C109.047 47.8932 106.411 48.5093 106.106 49.3215C105.801 50.1338 105.218 51.9823 104.829 53.8868C104.302 56.6876 98.725 66.6864 95.5341 71.9238C94.5074 69.8793 93.6195 68.0868 93.4253 66.6584C93.1478 64.5018 92.8148 63.1854 93.1478 60.6087C93.4808 58.032 94.9791 54.3629 94.9514 54.0829C94.9237 53.8028 94.6184 52.4864 91.5662 52.4584C88.514 52.4304 85.878 53.0466 85.5728 53.8588C85.2676 54.671 84.9346 56.5756 84.2964 58.4241C83.6582 60.2726 76.2497 76.9652 74.3074 81.2784C73.3085 83.4911 72.4483 85.2555 71.8378 86.4599C71.8378 86.4599 71.8101 86.5439 71.7269 86.6839C71.1997 87.7202 70.8944 88.2804 70.8944 88.2804C70.8944 88.2804 70.8944 88.2804 70.8944 88.3084C70.4782 89.0646 70.0343 89.7648 69.8123 89.7648C69.6458 89.7648 69.3406 87.7482 69.8678 85.0035C70.9777 79.2059 73.6137 70.1873 73.5859 69.8793C73.5859 69.7112 74.0854 68.1428 71.8656 67.3306C69.7013 66.5183 68.9244 67.8627 68.7301 67.8627C68.5359 67.8627 68.3972 68.3388 68.3972 68.3388C68.3972 68.3388 70.8112 58.2 63.7911 58.2C59.407 58.2 53.3581 63.0454 50.3614 67.4146C48.4746 68.4509 44.4512 70.6635 40.1504 73.0441C38.5133 73.9684 36.8207 74.8927 35.2391 75.7609C35.1281 75.6489 35.0171 75.5088 34.9061 75.3968C26.4154 66.2383 10.7104 59.7685 11.3764 47.473C11.6261 42.9918 13.1522 31.2285 41.5377 16.9445C64.901 5.3213 83.4917 8.5422 86.7104 15.6842C91.3165 25.879 76.7491 44.8123 52.6089 47.5571C43.3968 48.5933 38.5688 45.0083 37.3479 43.664C36.0715 42.2636 35.8773 42.1796 35.4056 42.4596C34.6287 42.8798 35.1281 44.1401 35.4056 44.8683C36.127 46.7728 39.096 50.1338 44.1182 51.7862C48.5578 53.2426 59.3515 54.0549 72.4205 48.9574C87.0434 43.2439 98.4753 27.3634 95.1179 14.0597C91.7604 0.559974 69.5626 -3.89326 48.5578 3.64083C36.0715 8.12208 22.5308 15.18 12.7915 24.3666C1.22083 35.2896 -0.610491 44.7843 0.138688 48.7614C2.83018 62.8773 22.1146 72.0639 29.8284 78.8698C29.4399 79.0938 29.0792 79.2899 28.774 79.4579C24.9171 81.3905 10.211 89.1486 6.54833 97.3549C2.38622 106.653 7.21426 113.319 10.4052 114.216C20.311 116.988 30.4943 112.003 35.9605 103.769C41.4268 95.5344 40.7608 84.8354 38.2358 79.9341C38.2081 79.878 38.1803 79.822 38.1248 79.766C39.1237 79.1778 40.1504 78.5617 41.1493 77.9735C43.1193 76.7972 45.0616 75.7049 46.7265 74.8086C45.7831 77.4134 45.0894 80.5222 44.7564 85.0035C44.3402 90.2689 46.4768 97.1028 49.2793 99.7916C50.5279 100.968 51.9985 100.996 52.9419 100.996C56.2161 100.996 57.6867 98.2512 59.3238 95.0023C61.3216 91.0251 63.1252 86.4039 63.1252 86.4039C63.1252 86.4039 60.8776 98.8953 66.9821 98.8953C69.2019 98.8953 71.4494 95.9825 72.4483 94.4981C72.4483 94.5261 72.4483 94.5261 72.4483 94.5261C72.4483 94.5261 72.5038 94.4421 72.6148 94.246C72.8368 93.8819 72.9755 93.6579 72.9755 93.6579C72.9755 93.6579 72.9755 93.6299 72.9755 93.6019C73.8634 92.0334 75.8612 88.4764 78.8302 82.5668C82.6593 74.9487 86.3497 65.426 86.3497 65.426C86.3497 65.426 86.6827 67.7507 87.8203 71.6157C88.4863 73.8844 89.8736 76.3771 90.9835 78.7857C90.0956 80.0461 89.5407 80.7463 89.5407 80.7463C89.5407 80.7463 89.5407 80.7463 89.5684 80.7743C88.847 81.7266 88.07 82.7628 87.2099 83.7711C84.1854 87.4121 80.5783 91.5853 80.0788 92.7896C79.4961 94.218 79.6349 95.2543 80.7448 96.0946C81.5494 96.7107 82.9923 96.7947 84.4629 96.7107C87.1821 96.5147 89.0967 95.8425 90.0401 95.4224C91.5107 94.8902 93.2311 94.078 94.8404 92.8737C97.8094 90.661 99.6129 87.4962 99.4465 83.323C99.3632 81.0264 98.614 78.7297 97.6984 76.5731C97.9759 76.181 98.2256 75.7889 98.5031 75.3968C103.192 68.4789 106.827 60.8888 106.827 60.8888C106.827 60.8888 107.16 63.2134 108.298 67.0785C108.853 69.039 109.99 71.1676 110.989 73.2402C106.578 76.8532 103.858 81.0544 102.887 83.7991C101.139 88.8966 102.499 91.1932 105.079 91.7253C106.245 91.9774 107.909 91.4173 109.13 90.8851C110.684 90.381 112.515 89.5127 114.264 88.2244C117.233 86.0117 120.09 82.9309 119.924 78.7577C119.841 76.8532 119.341 74.9767 118.648 73.1562C122.394 71.5877 127.222 70.7195 133.381 71.4477C146.589 73.0161 149.197 81.3344 148.698 84.8354C148.199 88.3364 145.424 90.2409 144.508 90.8291C143.593 91.4173 143.287 91.6133 143.371 92.0334C143.482 92.6496 143.925 92.6216 144.702 92.5096C145.785 92.3135 151.639 89.6808 151.889 83.239C152.305 75.0047 144.536 66.0142 130.801 66.0982ZM28.9127 100.772C24.5286 105.589 18.4242 107.41 15.7882 105.869C12.958 104.217 14.0679 97.1028 19.4508 92.0054C22.725 88.8966 26.9426 86.0117 29.7451 84.2473C30.3833 83.8551 31.3267 83.295 32.4644 82.5948C32.6586 82.4828 32.7696 82.4268 32.7696 82.4268C32.9916 82.2867 33.2135 82.1467 33.4355 82.0066C35.4056 89.2887 33.5188 95.7024 28.9127 100.772ZM60.8221 78.8698C59.296 82.6228 56.1051 92.2295 54.1628 91.6973C52.4979 91.2492 51.4713 83.9672 53.8298 76.7692C55.023 73.1562 57.548 68.843 59.0186 67.1625C61.4048 64.4738 64.0408 63.5775 64.679 64.6698C65.4837 66.0982 61.7656 76.5171 60.8221 78.8698ZM87.1544 91.5853C86.5162 91.9214 85.9058 92.1455 85.6283 91.9774C85.4341 91.8654 85.9058 91.4173 85.9058 91.4173C85.9058 91.4173 89.2077 87.8323 90.5118 86.2078C91.261 85.2555 92.1489 84.1352 93.0923 82.8749C93.0923 82.9869 93.0923 83.127 93.0923 83.239C93.0923 87.5242 88.9857 90.409 87.1544 91.5853ZM107.465 86.908C106.994 86.5719 107.077 85.4516 108.659 81.9506C109.269 80.5782 110.712 78.2816 113.181 76.069C113.459 76.9652 113.653 77.8335 113.625 78.6457C113.598 84.0512 109.768 86.0678 107.465 86.908Z" fill="#CD6799"/>
</g>
<defs>
<clipPath id="clip0_1_453">
<rect width="152" height="115" fill="white"/>
</clipPath>
</defs>
</svg>
