<svg width="current" height="current" viewBox="0 0 512 512" fill="none" xmlns="http://www.w3.org/2000/svg">
<g clip-path="url(#clip0_327_446)">
<path d="M0 185.295C0 120.436 0 88.0061 12.6225 63.2331C23.7255 41.4421 41.4421 23.7255 63.2331 12.6225C88.0061 0 120.436 0 185.295 0H326.705C391.564 0 423.994 0 448.767 12.6225C470.558 23.7255 488.275 41.4421 499.378 63.2331C512 88.0061 512 120.436 512 185.295V326.705C512 391.564 512 423.994 499.378 448.767C488.275 470.558 470.558 488.275 448.767 499.378C423.994 512 391.564 512 326.705 512H185.295C120.436 512 88.0061 512 63.2331 499.378C41.4421 488.275 23.7255 470.558 12.6225 448.767C0 423.994 0 391.564 0 326.705V185.295Z" fill="#470137"/>
<path d="M267.822 150.561L203.936 258.709L272.286 373.551C273.707 376.154 272.286 376.729 270.226 376.729H221.454C218.019 376.729 215.614 376.605 214.24 374.255C209.657 365.096 205.078 355.996 200.502 346.954C195.919 337.915 191.053 328.697 185.905 319.3C180.753 309.91 175.658 300.399 170.621 290.766C166.037 300.162 160.942 309.556 156.023 318.948C151.097 328.344 146.231 337.679 141.426 346.954C136.617 356.234 131.695 365.452 126.657 374.607C125.739 376.721 124.134 376.939 121.848 376.939H74.7935C72.9447 376.939 72.7216 375.549 73.7633 373.903L140.052 262.231L75.48 150.208C74.3071 148.61 75.3166 146.907 77.1977 147.038H125.626C127.723 146.92 129.576 147.711 130.778 149.504C134.9 158.9 139.479 168.294 144.516 177.686C149.551 187.082 154.646 196.358 159.801 205.516C164.953 214.675 170.048 223.951 174.399 233.345C178.976 223.718 183.613 214.324 188.309 205.164C193 196.004 197.808 186.787 202.734 177.51C207.656 168.235 212.407 159.017 216.988 149.856C217.597 147.847 219.052 146.829 221.11 147.038H266.104C267.822 147.038 268.532 149.383 267.822 150.561Z" fill="#FF61F6"/>
<path d="M366.394 381.303C336.103 381.776 304.375 369.305 288.427 341.672C280.639 328.407 276.747 311.791 276.749 291.826C276.62 275.658 280.648 259.74 288.427 245.678C308.499 209.798 348.935 196.355 387.345 199.882V130.484C387.345 128.844 388.032 128.018 389.406 128.018H432.682C433.865 127.845 434.912 128.919 434.744 130.132V338.326C434.744 346.915 435.595 355.475 436.118 364.041C436.202 365.505 435.355 366.952 434.056 367.564C412.673 376.711 389.537 381.197 366.394 381.303ZM387.345 337.621V241.451C355.974 232.734 325.517 256.629 325.521 289.712C324.776 323.915 354.26 347.545 387.345 337.621Z" fill="#FF61F6"/>
</g>
<defs>
<clipPath id="clip0_327_446">
<rect width="512" height="512" fill="white"/>
</clipPath>
</defs>
</svg>
